<?xml version="1.0" encoding="UTF-8" standalone="no"?>
<!-- Created with Inkscape (http://www.inkscape.org/) -->

<svg
   xmlns:dc="http://purl.org/dc/elements/1.1/"
   xmlns:cc="http://creativecommons.org/ns#"
   xmlns:rdf="http://www.w3.org/1999/02/22-rdf-syntax-ns#"
   xmlns:svg="http://www.w3.org/2000/svg"
   xmlns="http://www.w3.org/2000/svg"
   xmlns:sodipodi="http://sodipodi.sourceforge.net/DTD/sodipodi-0.dtd"
   xmlns:inkscape="http://www.inkscape.org/namespaces/inkscape"
   width="210mm"
   height="297mm"
   viewBox="0 0 744.09448819 1052.3622047"
   id="svg4267"
   version="1.1"
   inkscape:version="0.91 r13725"
   sodipodi:docname="messi10.svg">
  <defs
     id="defs4269" />
  <sodipodi:namedview
     id="base"
     pagecolor="#ffffff"
     bordercolor="#666666"
     borderopacity="1.0"
     inkscape:pageopacity="0.0"
     inkscape:pageshadow="2"
     inkscape:zoom="0.65216401"
     inkscape:cx="71.428571"
     inkscape:cy="478.57143"
     inkscape:document-units="px"
     inkscape:current-layer="layer1"
     showgrid="false"
     inkscape:window-width="1920"
     inkscape:window-height="1017"
     inkscape:window-x="-8"
     inkscape:window-y="-8"
     inkscape:window-maximized="1" />
  <metadata
     id="metadata4272">
    <rdf:RDF>
      <cc:Work
         rdf:about="">
        <dc:format>image/svg+xml</dc:format>
        <dc:type
           rdf:resource="http://purl.org/dc/dcmitype/StillImage" />
        <dc:title></dc:title>
      </cc:Work>
    </rdf:RDF>
  </metadata>
  <g
     inkscape:label="Capa 1"
     inkscape:groupmode="layer"
     id="layer1">
    <path
       style="fill:#000000"
       d="m 37.511531,968.13117 c 0,-0.99121 1.345995,-4.03609 2.991099,-6.7664 1.645104,-2.7303 3.839545,-7.61922 4.876533,-10.8642 1.036988,-3.245 5.164996,-12.20053 9.173341,-19.90117 4.008345,-7.70067 10.472247,-20.29254 14.364217,-27.98199 5.714547,-11.29031 8.658724,-15.16258 15.299183,-20.1219 9.643123,-7.20181 15.734692,-13.56622 24.503346,-25.60082 3.5091,-4.81609 7.98197,-10.18772 9.93972,-11.93695 1.95774,-1.74924 4.66001,-5.33145 6.00504,-7.96047 1.34503,-2.62903 5.07869,-8.00403 8.29704,-11.94447 3.21835,-3.94043 7.80708,-10.56893 10.19719,-14.72999 5.20908,-9.06873 38.2606,-43.37482 40.47192,-42.00815 0.85509,0.52849 8.8881,2.38245 17.85114,4.11993 8.96304,1.73749 22.1262,5.33114 29.25143,7.98591 7.12525,2.65477 22.82878,6.52817 34.89677,8.60756 12.6385,2.1777 23.10169,4.81752 24.67746,6.22602 1.50461,1.3449 11.33298,6.82208 21.8408,12.1715 10.50782,5.34944 23.3636,12.91733 28.5684,16.81755 9.89002,7.41112 13.99263,8.44946 6.70722,1.69755 -2.32639,-2.15601 -4.22978,-3.45908 -4.22978,-2.8957 0,0.56338 -0.89555,-0.15156 -1.99012,-1.5886 -1.09456,-1.43711 -4.95983,-4.97714 -8.58952,-7.86675 -3.62965,-2.8896 -13.53109,-11.10424 -22.00318,-18.25474 -17.13909,-14.46551 -26.787,-19.10417 -57.3705,-27.58344 -9.63217,-2.67051 -23.41824,-6.77781 -30.6357,-9.12734 -13.82581,-4.50077 -12.94902,-4.5284 -27.36482,0.86231 -1.25248,0.46834 0.1804,-2.4398 3.18417,-6.46256 3.0038,-4.02275 7.42358,-10.94112 9.82175,-15.3741 4.51036,-8.33734 14.27098,-16.08307 20.26674,-16.08307 2.36523,0 3.09837,-0.93069 2.81779,-3.57707 -0.27997,-2.64062 0.55852,-3.71159 3.20296,-4.09097 1.97023,-0.28264 3.58222,-1.19891 3.58222,-2.03614 0,-1.71312 8.1067,2.1234 11.39185,5.39125 1.17752,1.17131 6.14542,4.68771 11.03974,7.81421 11.32313,7.23319 18.36498,14.01175 14.556,14.01175 -2.11363,0 -1.92413,0.52245 0.90942,2.50716 1.9687,1.37892 4.45656,2.19366 5.52856,1.81053 2.53408,-0.90566 9.92379,2.8493 12.6342,6.41985 1.16702,1.53739 4.25027,4.58637 6.85165,6.7755 3.46685,2.91743 3.98711,3.09457 1.9484,0.66338 -2.64781,-3.15758 -2.64727,-3.31836 0.0115,-3.34773 1.53604,-0.0168 4.20598,0.93831 5.93322,2.1228 1.72721,1.1845 2.40783,2.15364 1.51248,2.15364 -0.89535,0 -2.66677,-0.89554 -3.93647,-1.99011 -1.26969,-1.09456 0.37813,0.90585 3.66182,4.44538 6.19781,6.68068 8.03776,10.68029 3.18419,6.92166 -2.26816,-1.75649 -2.22229,-1.49672 0.24676,1.39714 3.10719,3.64184 5.09678,4.81256 3.33545,1.96269 -0.54119,-0.87566 -0.18296,-1.5921 0.79605,-1.5921 1.00028,0 1.25627,-0.87177 0.5844,-1.99012 -0.85258,-1.41907 -0.44272,-1.37976 1.42839,0.13709 1.46522,1.18779 3.53365,1.58015 4.68387,0.88845 1.32641,-0.79766 1.20952,-0.17345 -0.32829,1.75311 -2.19667,2.75198 -2.13284,2.90383 0.79605,1.89382 2.93904,-1.01352 2.97159,-0.93241 0.42277,1.05339 -3.16701,2.46746 -2.12395,4.47214 1.58616,3.04844 1.53613,-0.58947 2.09006,-0.30388 1.4426,0.74374 -0.59208,0.95801 2.43513,3.93772 6.93239,6.82359 4.39088,2.81762 9.81955,7.3683 12.0637,10.1126 2.64498,3.23446 3.4551,3.72953 2.303,1.40743 -0.9775,-1.97021 -1.15064,-3.58221 -0.38473,-3.58221 1.68386,0 5.60098,7.6284 5.98158,11.64882 0.15061,1.59077 1.17347,3.7401 2.27306,4.77628 1.60246,1.51007 1.61391,1.13646 0.0577,-1.88243 -1.58607,-3.07679 -1.54887,-3.63679 0.20314,-3.05846 1.1796,0.38937 2.92512,2.25912 3.87892,4.155 0.95381,1.89587 2.32246,2.91396 3.04141,2.26241 0.71898,-0.65155 0.79558,-0.29507 0.17022,0.79215 -1.33697,2.3244 5.71856,9.96393 9.20224,9.96393 1.29366,0 3.88255,2.14932 5.75311,4.77628 1.87055,2.62695 4.31585,4.77628 5.43398,4.77628 1.11814,0 3.39779,1.50911 5.06589,3.3536 5.05741,5.59216 13.63299,9.19899 17.9854,7.56459 3.04682,-1.14416 4.27302,-0.76578 6.13554,1.89337 1.32582,1.89287 3.33371,2.93724 4.66494,2.42641 1.28546,-0.49328 4.61422,0.79286 7.39725,2.85808 6.69517,4.96834 11.75169,6.12967 12.96151,2.97689 0.80794,-2.10543 1.27055,-2.02339 3.23637,0.57397 2.01612,2.66378 2.29984,2.70635 2.34435,0.35168 0.0279,-1.47339 1.40615,-3.10911 3.06291,-3.63494 3.04678,-0.96702 4.90384,-4.75165 5.87499,-11.97311 0.29277,-2.17693 1.21831,-4.18675 2.05678,-4.46622 0.87582,-0.29194 0.30062,-4.36589 -1.35189,-9.57474 -1.582,-4.98662 -3.79341,-13.2195 -4.91426,-18.2953 -1.12083,-5.0758 -2.63189,-9.59586 -3.35789,-10.04455 -0.72571,-0.44871 -1.31973,-2.56466 -1.31973,-4.7021 0,-2.13746 -0.71644,-3.88628 -1.59209,-3.88628 -0.87566,0 -1.5921,-1.43288 -1.5921,-3.18419 0,-1.79218 -1.0614,-3.18418 -2.42794,-3.18418 -1.43906,0 -2.82816,-2.00108 -3.41057,-4.91313 -0.54044,-2.70222 -2.00872,-5.30686 -3.26282,-5.7881 -1.50363,-0.57702 -1.95844,-2.15704 -1.33538,-4.63947 0.51963,-2.07043 0.28179,-3.76443 -0.52856,-3.76443 -0.81037,0 -1.09767,-1.43671 -0.63848,-3.19267 0.45921,-1.75598 -0.0537,-4.26353 -1.14003,-5.57233 -1.08623,-1.30882 -1.44128,-2.37966 -0.78902,-2.37966 0.65226,0 0.48056,-0.89556 -0.38158,-1.99012 -0.86211,-1.09457 -2.06089,-4.05096 -2.66395,-6.56974 -0.89472,-3.73704 -0.64219,-4.40532 1.37256,-3.63219 3.5943,1.37926 3.02136,-2.08031 -0.90902,-5.48911 -2.44464,-2.12023 -3.14874,-4.12919 -2.54825,-7.27059 0.45641,-2.38745 0.0986,-6.1682 -0.79525,-8.40165 -0.89377,-2.23343 -1.86859,-7.82224 -2.16624,-12.41956 -0.36598,-5.65241 -1.59216,-9.48679 -3.78719,-11.84289 -1.78528,-1.91627 -3.24597,-5.41065 -3.24597,-7.76528 0,-2.35462 -1.03207,-5.13767 -2.29351,-6.18457 -1.26143,-1.0469 -1.91544,-2.88863 -1.45339,-4.09274 1.09154,-2.84449 -4.26582,-11.90674 -7.03893,-11.90674 -1.17636,0 -1.71541,-0.68516 -1.19785,-1.52256 0.51754,-0.83742 2.00084,-1.11586 3.29621,-0.61879 1.66902,0.64047 2.06838,0.15634 1.37076,-1.66162 -0.54144,-1.41098 -2.16155,-2.57637 -3.60027,-2.58978 -2.27058,-0.0211 -2.30061,-0.22808 -0.22768,-1.56772 1.6767,-1.08356 1.77904,-1.55061 0.34356,-1.56771 -1.34033,-0.0159 -1.79671,-1.53251 -1.32499,-4.40264 0.39578,-2.40805 0.83331,-4.37826 0.97232,-4.37826 1.11498,0 0.99661,-5.75807 -0.13263,-6.45602 -2.65766,-1.64249 -1.49497,-3.89259 2.01135,-3.89259 l 3.46173,0 -3.46173,-3.68482 c -1.90394,-2.02666 -3.43595,-4.71332 -3.40445,-5.97035 0.0357,-1.42221 1.38876,-0.6748 3.58221,1.97864 1.93872,2.34529 5.67429,4.76623 8.30124,5.37985 3.26938,0.7637 4.27398,0.59729 3.18419,-0.52743 -0.87565,-0.9037 -2.94819,-1.89175 -4.60564,-2.19566 -1.65746,-0.3039 -3.5163,-1.62722 -4.13081,-2.9407 -0.61449,-1.31348 -1.83638,-3.82103 -2.71529,-5.57233 -0.87892,-1.7513 -1.38916,-4.59268 -1.13391,-6.31418 0.25526,-1.7215 -0.29936,-4.04993 -1.23251,-5.17431 -1.21457,-1.46346 -1.17467,-2.04431 0.14043,-2.04431 1.01037,0 2.23893,1.04739 2.73017,2.32753 0.49123,1.28016 2.25986,2.76131 3.93026,3.29148 1.91755,0.60861 3.03711,2.42624 3.03711,4.93084 0,2.50514 0.65227,3.5638 1.77009,2.87293 0.97356,-0.60167 2.39547,-0.10673 3.15981,1.10011 1.09912,1.73529 1.39482,1.61149 1.4141,-0.59207 0.0127,-1.53238 -0.69812,-2.78616 -1.5812,-2.78616 -1.03289,0 -0.98934,-0.99381 0.12214,-2.78617 1.24487,-2.00756 1.2362,-4.07136 -0.0311,-7.38522 -0.9673,-2.5295 -2.15495,-4.20285 -2.63921,-3.71856 -0.48428,0.48426 -0.1061,2.32763 0.84059,4.09635 2.08593,3.8976 2.21503,6.60941 0.31467,6.60941 -0.77352,0 -1.79996,-1.50497 -2.28097,-3.34438 -0.48158,-1.84154 -1.63815,-2.87245 -2.57383,-2.29418 -0.99017,0.61191 -1.69935,-0.29205 -1.69935,-2.16594 0,-4.0565 -5.94222,-9.70853 -10.20703,-9.70853 -3.12767,0 -3.11743,-0.0846 0.3002,-2.47842 3.29409,-2.30728 5.27689,-8.33649 2.09484,-6.36987 -0.794,0.49071 -1.09006,-0.72077 -0.65794,-2.69221 0.64916,-2.96161 0.46693,-3.16945 -1.04882,-1.19626 -1.50125,1.95433 -1.65146,1.73742 -0.82687,-1.19407 0.8179,-2.90771 0.37018,-3.58221 -2.37781,-3.58221 -1.86199,0 -2.94265,0.71644 -2.40147,1.59209 0.54119,0.87566 0.27352,1.5921 -0.5948,1.5921 -2.39949,0 -3.86985,-6.2545 -1.99999,-8.50752 1.09168,-1.3154 1.18957,-6.5328 0.28982,-15.4465 -0.90321,-8.9479 -0.80965,-13.80081 0.27909,-14.47627 0.90078,-0.55882 1.30141,-1.63349 0.8903,-2.38814 -0.41109,-0.75464 0.55536,-2.60943 2.14769,-4.12174 2.7486,-2.61049 2.98379,-2.58404 4.64633,0.52244 0.96314,1.79965 1.29533,4.4699 0.73821,5.93386 -0.7872,2.06851 -0.58589,2.23795 0.90329,0.76021 1.49349,-1.482 1.46701,-2.98614 -0.11998,-6.81745 -1.11993,-2.70374 -1.58157,-5.37056 -1.02588,-5.92625 0.55569,-0.55569 1.01034,-0.12342 1.01034,0.96081 0,1.08414 1.02665,2.99782 2.28144,4.25261 1.31498,1.31498 1.96379,4.0332 1.53158,6.41664 -0.41242,2.27435 0.17294,5.27449 1.30078,6.66697 1.2482,1.54105 1.33012,2.09991 0.20939,1.42815 -1.3936,-0.8353 -1.3936,-0.14201 0,2.8515 l 1.84124,3.95512 1.00571,-4.35118 c 0.55313,-2.39316 1.09045,-3.37899 1.19407,-2.19073 0.10469,1.20204 1.21178,1.76772 2.49542,1.27515 1.52033,-0.58342 2.01345,-0.12023 1.44604,1.35847 -0.61799,1.61044 0.12024,2.0548 2.61528,1.5743 2.68939,-0.51793 3.25082,-0.082 2.48027,1.92611 -0.54783,1.42759 -0.13596,3.12718 0.91534,3.77688 1.05124,0.64972 1.91136,3.48845 1.91136,6.3083 0,4.66264 0.19226,4.86408 2.12281,2.2239 2.49858,-3.41702 2.80103,-6.08579 0.53069,-4.68263 -0.87566,0.54119 -1.5921,-0.18953 -1.5921,-1.62382 0,-1.72996 2.48015,-0.12769 7.3677,4.75991 7.36843,7.36843 12.99897,8.96591 12.02898,3.41283 -0.30162,-1.72671 0.17858,-2.46604 1.19407,-1.83846 0.9342,0.57739 1.69857,2.35267 1.69857,3.94507 0,1.59241 1.07466,3.78718 2.38814,4.87727 1.96177,1.6281 2.38814,1.50402 2.38814,-0.69506 0,-1.47239 0.66689,-2.2649 1.48197,-1.76115 0.81509,0.50376 1.20784,2.87447 0.8728,5.26828 l -0.60917,4.35235 2.35047,-4.77628 2.35044,-4.77628 -0.96162,5.17431 c -0.60138,3.23592 -0.31779,5.1743 0.75697,5.1743 0.94525,0 1.71861,1.07466 1.71861,2.38814 0,1.31348 -0.53734,2.20903 -1.19407,1.99012 -1.27132,-0.42376 -1.99012,0.91114 -1.99012,3.69594 0,0.93819 1.07467,0.63114 2.38815,-0.68234 1.31347,-1.31347 2.38814,-3.51398 2.38814,-4.88999 0,-3.93455 3.16261,-2.92034 3.36887,1.08034 0.1669,3.23724 0.25844,3.27558 0.95059,0.39803 1.27949,-5.31942 3.24053,-6.1121 5.34627,-2.16105 1.88687,3.5404 1.83278,3.61777 -0.95418,1.365 -2.62614,-2.12278 -2.7961,-2.12278 -1.52962,0 0.78364,1.31348 3.0705,3.69391 5.0819,5.28985 2.0114,1.59596 3.65711,4.28261 3.65711,5.97036 0,1.68776 0.79999,3.06864 1.77778,3.06864 0.99394,0 1.41063,-1.40393 0.94509,-3.18419 -1.27737,-4.88471 0.41962,-3.77893 2.24748,1.46446 0.89129,2.55673 2.59655,5.02316 3.78948,5.48094 1.25345,0.48099 -0.13756,-3.59281 -3.29543,-9.65125 -5.38117,-10.32396 -6.66071,-14.80719 -4.22607,-14.80719 0.68104,0 2.51627,1.49261 4.07828,3.31691 1.59018,1.85719 3.88424,2.91619 5.2128,2.40637 1.33953,-0.51402 1.94922,-0.22518 1.40008,0.66333 -0.53496,0.86562 -2.00508,1.57386 -3.26687,1.57386 -1.26181,0 -2.29418,0.64937 -2.29418,1.44304 0,0.79368 1.43288,1.06835 3.18419,0.61037 2.24862,-0.58803 3.18418,-0.0489 3.18418,1.83511 0,1.53445 -0.74384,2.20806 -1.75093,1.58565 -1.23019,-0.76031 -1.29418,-0.19639 -0.21514,1.89615 0.8447,1.63807 1.99511,4.05296 2.5565,5.36644 0.5614,1.31347 0.6295,0.3579 0.15125,-2.12353 -0.5598,-2.90507 -0.27973,-4.14722 0.78653,-3.48824 1.63548,1.01079 2.45847,-3.18113 1.86178,-9.48283 -0.29769,-3.14381 -0.29102,-3.14381 2.08524,0 2.74388,3.63014 3.22506,6.18722 0.89307,4.74598 -2.01495,-1.24529 -2.01495,0.86233 0,3.98024 0.84884,1.31348 1.55432,1.56923 1.56772,0.56836 0.0127,-1.00089 1.27815,-2.29711 2.81054,-2.8805 2.23395,-0.85046 2.39172,-0.66334 0.79605,0.94414 -2.81914,2.83999 -2.48489,4.05143 1.39797,5.06682 2.63983,0.69033 3.21601,1.78619 2.60891,4.96197 -0.42854,2.24177 -0.067,4.07596 0.80343,4.07596 2.43176,0 7.52842,6.5166 7.52842,9.62583 0,1.52363 1.07466,3.18263 2.38814,3.68668 1.31348,0.50402 2.39911,2.19265 2.41252,3.75254 0.0206,2.41345 0.25439,2.48021 1.56772,0.44799 1.2391,-1.91738 1.54813,-1.65584 1.56771,1.32673 0.0144,2.26276 0.8023,3.45157 2.0145,3.04126 1.09456,-0.3705 4.10259,0.20971 6.68452,1.28934 4.3473,1.81783 5.02495,1.60916 9.16433,-2.82207 2.52157,-2.69935 4.89291,-7.43035 5.44037,-10.85393 0.68463,-4.28151 1.61955,-5.8198 3.1744,-5.22315 1.31382,0.50412 2.20403,-0.18767 2.20403,-1.71274 0,-1.40716 0.54155,-2.55848 1.20344,-2.55848 0.66191,0 2.20062,-2.32844 3.41936,-5.1743 2.34855,-5.48399 9.16531,-12.18576 12.49221,-12.28148 1.09457,-0.0315 1.99012,-1.13192 1.99012,-2.44539 0,-1.31348 0.67223,-2.38814 1.49383,-2.38814 0.82162,0 3.84705,-2.14933 6.7232,-4.77629 2.87614,-2.62695 6.32345,-4.79907 7.66071,-4.82691 3.70615,-0.0772 8.50526,-4.30631 7.59082,-6.68928 -0.44672,-1.16414 -4.48401,-3.05768 -8.97177,-4.20785 -11.00859,-2.82142 -15.93695,-10.45132 -11.39176,-17.63637 1.22178,-1.93141 2.09513,-1.97687 5.27585,-0.2746 3.30745,1.77009 5.16406,1.47981 14.03438,-2.19436 11.23161,-4.65223 28.19843,-8.36413 44.94154,-9.83206 12.35238,-1.08296 17.81925,0.87459 19.33763,6.92432 0.53024,2.11269 1.65953,3.41146 2.50952,2.88615 0.84997,-0.52532 1.54541,-0.50751 1.54541,0.0395 0,2.94014 -4.19709,7.78323 -12.35504,14.25664 -13.20542,10.47866 -13.11846,10.3991 -13.11846,12.00297 0,0.80701 1.33998,2.74898 2.97773,4.31548 1.63779,1.5665 4.44305,6.20558 6.23394,10.30907 2.86707,6.5693 2.9393,7.34564 0.60447,6.49643 -2.38447,-0.86724 -2.37093,-0.6438 0.13452,2.21706 3.21455,3.67065 3.7306,12.6308 0.79605,13.82155 -1.54724,0.6278 -1.50943,1.14448 0.16997,2.32179 1.39783,0.9799 1.5771,1.8746 0.50804,2.53532 -0.90862,0.56156 -2.10207,0.29289 -2.65208,-0.59704 -0.55008,-0.88988 -1.97757,-1.618 -3.17224,-1.618 -1.80839,0 -1.78926,0.76753 0.11412,4.58302 1.52795,3.06285 1.83428,5.80494 0.92353,8.26692 l -1.36277,3.68392 -1.09224,-4.35181 c -1.69512,-6.75391 -3.72684,-3.64588 -4.48706,6.86412 -0.67129,9.28043 -2.58681,14.04177 -4.02689,10.00955 -0.3909,-1.09457 -1.86265,-1.99012 -3.2705,-1.99012 -2.16619,0 -2.10855,0.32995 0.37492,2.14589 2.84,2.07667 2.83291,2.24767 -0.22011,5.30069 -2.0489,2.0489 -3.24964,5.57507 -3.42534,10.05906 -0.14887,3.79734 -0.59836,7.23208 -0.99902,7.63275 -1.71386,1.71386 -5.61389,-1.44063 -6.39071,-5.16903 -0.46392,-2.22663 -1.22721,-5.88673 -1.6962,-8.13357 -1.08557,-5.20071 -7.57981,-7.93836 -22.03289,-9.28798 -9.27229,-0.86585 -11.25086,-0.60361 -12.94692,1.71591 -1.68965,2.31072 -1.43319,3.18542 1.64345,5.60549 2.005,1.57714 5.00119,2.86754 6.65815,2.86754 1.65697,0 3.97752,0.89555 5.15675,1.99012 1.74373,1.61851 1.89475,1.54417 0.80886,-0.39802 -1.15078,-2.05824 -0.9631,-2.0863 1.35852,-0.20309 1.48157,1.20179 2.70472,1.56001 2.71813,0.79605 0.0127,-0.76395 0.55074,-0.67257 1.19408,0.20308 0.64333,0.87566 2.60257,2.38611 4.35388,3.35657 1.7513,0.97045 3.27078,3.4096 3.37664,5.42036 l 0.19244,3.65589 -2.92118,-3.82826 -2.92119,-3.82827 0.98482,6.36837 c 0.54165,3.50261 1.42607,6.7266 1.9654,7.16443 0.53931,0.43782 1.03764,4.3288 1.10736,8.64662 l 0.12673,7.85058 -3.90877,-4.66639 c -3.74145,-4.46663 -3.71782,-4.30383 0.55207,3.80328 3.64378,6.91831 4.12234,9.01174 2.61266,11.42915 -1.41715,2.26919 -1.39744,3.12078 0.0846,3.65108 1.06299,0.38041 1.37017,1.29255 0.68262,2.027 -0.68754,0.73444 -3.04497,-0.60036 -5.23874,-2.96623 -4.43648,-4.78455 -8.80084,-6.04461 -5.24879,-1.51542 1.20178,1.53238 2.58258,3.14438 3.06848,3.58221 0.48587,0.43782 1.99388,4.3436 3.35114,8.67948 2.56439,8.19226 6.11405,11.54916 6.11405,5.78203 0,-2.96886 0.86871,-3.62674 4.20026,-3.18088 0.55883,0.0749 1.57672,-0.77119 2.26198,-1.87995 0.80092,-1.2959 1.63977,0.0834 2.34861,3.86183 0.60647,3.23278 1.83416,6.32986 2.72817,6.88239 1.05966,0.65492 1.24763,-0.8753 0.53998,-4.39583 -1.43295,-7.1288 -2.2112,-12.47852 -2.5228,-17.34117 -0.14027,-2.18913 -0.61639,-3.08468 -1.05805,-1.99011 -0.44167,1.09455 -1.86917,1.99011 -3.17222,1.99011 -2.04124,0 -2.02287,-0.34631 0.13262,-2.50186 2.84691,-2.84691 3.2583,-6.39527 0.90977,-7.84675 -0.87565,-0.54118 -1.59209,0.54238 -1.59209,2.4079 0,2.92894 -0.30835,3.08354 -2.25918,1.13268 -1.88963,-1.88961 -2.34644,-7.59385 -1.15172,-14.38118 0.52399,-2.9769 3.42598,1.02969 3.59558,4.96421 0.14233,3.30242 0.36021,3.55455 0.9506,1.10011 0.42123,-1.7513 1.41278,-3.8648 2.20343,-4.69668 2.13156,-2.24265 1.74153,-4.51715 -0.61924,-3.61124 -2.9521,1.13282 -6.78736,-2.26208 -7.04785,-6.23865 -0.21844,-3.33448 -0.13962,-3.3248 3.97445,0.48802 l 4.19728,3.88992 1.26053,-3.4075 c 1.54474,-4.17585 5.06033,-3.3482 5.75244,1.35422 0.35252,2.39502 -0.16175,3.19275 -1.68215,2.6093 -1.77157,-0.67981 -2.17269,2.18614 -2.09981,15.00329 0.0865,15.22076 0.29218,16.13034 5.23155,23.13753 2.82783,4.01165 4.50437,7.29391 3.72566,7.29391 -0.77872,0 -1.26464,6.26886 -1.07986,13.93082 0.30426,12.61461 0.0288,14.08501 -2.91551,15.56291 -1.78831,0.89764 -3.51982,3.04696 -3.84778,4.77628 -0.32797,1.72931 -1.06007,3.50242 -1.62688,3.94025 -0.56681,0.43782 -1.74783,2.94537 -2.62447,5.57232 -0.87663,2.62696 -3.2023,5.48631 -5.16814,6.35414 -1.96584,0.86782 -3.92487,2.65893 -4.3534,3.98024 -1.05774,3.26146 -11.28786,10.04742 -13.84746,9.18546 -1.13374,-0.38179 -2.93411,0.44337 -4.00083,1.8337 -1.28105,1.66969 -1.95667,1.85225 -1.99012,0.53776 -0.0338,-1.32995 -1.06906,-1.06586 -3.12069,0.79605 -6.12881,5.56202 -7.98522,6.7664 -10.42967,6.7664 -1.36922,0 -3.28952,1.75591 -4.26737,3.90203 -1.10033,2.415 -3.66597,4.31464 -6.73227,4.98468 -2.7249,0.59547 -6.53215,2.77997 -8.46055,4.85448 -3.92662,4.22411 -8.6382,5.46583 -5.25033,1.3837 1.42796,-1.7206 1.46848,-2.38814 0.14503,-2.38814 -1.01036,0 -2.25963,1.10136 -2.77618,2.44745 -1.07464,2.80042 -7.45987,5.70841 -18.66921,8.50237 -9.46555,2.35932 -17.87506,10.35913 -19.39249,18.44775 -0.58079,3.09567 -1.69266,5.6285 -2.47086,5.6285 -0.77821,0 -1.41492,0.9656 -1.41492,2.14578 0,2.08622 -6.35263,8.37569 -29.95177,29.65406 -7.15085,6.44761 -12.09822,12.32917 -13.21351,15.70855 -2.42447,7.34623 -0.89662,16.80776 3.85201,23.85417 2.16977,3.21971 4.8471,8.71977 5.9496,12.22238 1.10254,3.5026 2.97666,7.86382 4.16474,9.69158 1.18808,1.82778 4.25802,9.52953 6.82206,17.11502 l 4.66194,13.7918 -223.58827,0 c -165.374917,0 -223.58827,-0.46922 -223.58827,-1.8022 z M 395.65606,872.07013 c -3.02262,-3.03699 -6.17303,-5.54454 -7.00088,-5.57233 -0.82786,-0.0279 1.23241,2.457 4.57838,5.52178 7.85238,7.19251 9.56632,7.22829 2.4225,0.0504 z m -12.18391,-11.93432 c -0.44979,-1.71999 -1.60393,-2.97377 -2.56476,-2.78617 -0.96081,0.1876 -1.77952,-0.66528 -1.81932,-1.89528 -0.0397,-1.23 -1.41835,-2.43391 -3.06346,-2.67536 -2.32848,-0.34174 -1.81844,0.77085 2.30244,5.02253 2.91146,3.00385 5.44413,5.46153 5.62822,5.46153 0.18406,0 -0.0333,-1.40727 -0.48312,-3.12725 z M 371.3206,848.22663 c 0,-1.26484 -0.74358,-2.1604 -1.6524,-1.99012 -0.90883,0.17025 -1.68499,-0.68702 -1.72479,-1.90505 -0.0397,-1.21805 -1.47644,-3.00916 -3.19254,-3.98024 -1.7161,-0.9711 -4.42913,-3.34501 -6.02893,-5.27539 -1.63013,-1.96697 -3.93382,-3.11639 -5.24074,-2.61488 -1.69152,0.64909 -0.69156,2.1004 3.64079,5.28409 3.28502,2.41408 7.70967,6.27744 9.83251,8.58526 4.51922,4.91296 4.3661,4.84644 4.3661,1.89633 z M 270.75331,735.89554 c -0.54118,-0.87566 -1.83723,-1.58113 -2.88012,-1.56772 -1.13933,0.0144 -0.94295,0.64038 0.49198,1.56772 3.05861,1.97663 3.60975,1.97663 2.38814,0 z m 287.97541,-8.3585 c 0.62352,-2.59915 0.39106,-4.37826 -0.5721,-4.37826 -0.89233,0 -1.62242,2.26874 -1.62242,5.04164 0,5.79725 0.695,5.58717 2.19452,-0.66338 z m 13.64421,-3.98023 c -0.0815,-11.28287 0.68952,-15.98599 2.50644,-15.28877 2.33249,0.89505 7.10569,12.53376 7.25404,17.68782 0.069,2.40205 0.48705,3.47179 0.92871,2.37723 0.44166,-1.09457 1.81799,-1.99012 3.05849,-1.99012 1.24051,0 2.25548,-0.69396 2.25548,-1.54214 0,-0.84815 0.89554,-1.20035 1.99011,-0.78265 1.30009,0.49614 2.0489,-0.90124 2.15965,-4.0302 0.15299,-4.32331 -0.81235,-5.54064 -3.48272,-4.39164 -0.50876,0.2189 -1.9557,-1.39309 -3.21541,-3.58222 -2.15431,-3.74375 -2.24585,-3.45995 -1.54039,4.77629 l 0.75002,8.75651 -2.14256,-6.36837 c -2.9571,-8.78939 -6.56851,-15.28115 -7.81026,-14.03941 -0.5705,0.57052 -1.03729,0.20145 -1.03729,-0.82013 0,-1.0216 1.39728,-1.85745 3.10508,-1.85745 5.86494,0 6.85748,-8.00657 1.57892,-12.73675 -0.48858,-0.43783 -1.98358,-2.40044 -3.32224,-4.36133 l -2.43389,-3.56531 -2.12112,3.96333 c -1.16661,2.17982 -3.16243,3.96331 -4.43515,3.96331 -1.84548,0 -1.92443,0.46945 -0.38995,2.3184 1.05825,1.27512 1.48912,3.02219 0.9575,3.88237 -0.53163,0.8602 0.30224,2.31136 1.85306,3.22481 2.25314,1.32713 2.39349,1.94171 0.69852,3.05896 -1.56066,1.02868 -1.81942,3.41005 -0.9793,9.01232 0.84877,5.66005 0.66147,7.31735 -0.72981,6.45749 -1.04919,-0.64844 -1.44753,-2.67195 -0.90651,-4.60496 0.63949,-2.28484 0.48321,-2.75713 -0.46322,-1.39984 -1.31998,1.89296 -4.28689,-3.14342 -7.30305,-12.39699 -0.42811,-1.31348 -0.83496,-0.35523 -0.90408,2.12946 -0.069,2.48467 2.38185,9.0015 5.44663,14.48185 3.06478,5.48033 5.57233,11.14916 5.57233,12.5974 0,1.44825 0.71022,2.63317 1.5783,2.63317 0.86806,0 1.55372,-3.40309 1.52367,-7.56244 z m 23.89064,-10.08695 c -0.9774,-1.8263 -2.17937,-2.91828 -2.67102,-2.42661 -0.49168,0.49165 0.0127,1.98589 1.11997,3.32054 2.8623,3.44886 3.63646,3.00267 1.55105,-0.89393 z m -39.72937,-1.64142 c 0,-0.77352 -0.74164,-1.40641 -1.64811,-1.40641 -1.02859,0 -1.13466,-1.04732 -0.28215,-2.78616 0.75126,-1.5324 0.94551,-4.9355 0.43166,-7.56245 -0.80351,-4.10773 -1.15998,-3.41732 -2.54664,4.93232 -1.48633,8.94967 -1.39124,9.65076 1.21644,8.96885 1.55584,-0.40687 2.8288,-1.37263 2.8288,-2.14615 z m 37.14999,-36.53749 c -1.06289,-1.0629 -1.59323,0.12558 -1.59323,3.57054 0,4.76221 0.12393,4.8861 1.59323,1.5932 1.0629,-2.38202 1.0629,-4.10085 0,-5.16374 z M 416.42992,645.14617 c 0,-0.87565 -0.71644,-1.59209 -1.59209,-1.59209 -0.87565,0 -1.59209,0.71644 -1.59209,1.59209 0,0.87565 0.71644,1.5921 1.59209,1.5921 0.87565,0 1.59209,-0.71645 1.59209,-1.5921 z m -7.16442,-30.24979 c -0.54118,-0.87565 -1.65813,-1.59209 -2.4821,-1.59209 -0.82398,0 -1.49813,0.71644 -1.49813,1.59209 0,0.87566 1.11694,1.5921 2.48211,1.5921 1.36515,0 2.0393,-0.71644 1.49812,-1.5921 z m 85.97308,-4.77628 c 0.54119,-0.87565 0.22525,-1.59209 -0.70209,-1.59209 -0.92732,0 -1.68605,0.71644 -1.68605,1.59209 0,0.87565 0.31594,1.5921 0.70209,1.5921 0.38614,0 1.14487,-0.71645 1.68605,-1.5921 z M 426.201,603.95585 c -2.74714,-2.56622 -5.05136,-5.63217 -5.12049,-6.81324 -0.10406,-1.77945 -0.27117,-1.78276 -0.9747,-0.0195 -0.83567,2.09464 8.95128,13.63714 10.36464,12.22381 0.39894,-0.39894 -1.52232,-2.825 -4.26945,-5.3912 z m 76.202,0.59192 c 0,-1.31347 -0.71644,-2.38814 -1.59209,-2.38814 -0.87565,0 -1.59209,1.07467 -1.59209,2.38814 0,1.31348 0.71644,2.38814 1.59209,2.38814 0.87565,0 1.59209,-1.07466 1.59209,-2.38814 z m -29.31299,-5.16624 c -1.73921,-1.7392 -2.93181,1.02667 -1.68314,3.90351 1.18401,2.72784 1.26984,2.72536 1.92953,-0.0559 0.37971,-1.60092 0.26883,-3.33233 -0.24639,-3.84755 z m -62.23242,-1.99818 c -1.20758,-3.80475 1.60815,-4.32907 3.05134,-0.56817 0.55212,1.4388 1.39485,2.22502 1.87274,1.74713 0.99618,-0.9962 -2.77153,-7.54734 -4.34067,-7.54734 -1.69252,0 -2.94429,4.58688 -1.9552,7.16443 1.36802,3.565 2.54007,2.88487 1.37179,-0.79605 z m 55.86404,-2.77812 c -1.7392,-1.7392 -2.93181,1.02669 -1.68314,3.90353 1.18401,2.72784 1.26984,2.72536 1.92953,-0.0559 0.37971,-1.60092 0.26884,-3.33233 -0.24639,-3.84755 z m -32.77867,-1.10816 c 0,-0.38614 -0.71644,-1.14487 -1.5921,-1.68605 -0.87565,-0.54118 -1.59209,-0.22525 -1.59209,0.70209 0,0.92732 0.71644,1.68605 1.59209,1.68605 0.87566,0 1.5921,-0.31593 1.5921,-0.70209 z m -27.13858,-7.39474 c -0.97741,-1.8263 -2.17938,-2.91828 -2.67103,-2.4266 -0.49167,0.49165 0.0127,1.98588 1.11997,3.32053 2.86231,3.44886 3.63646,3.00266 1.55106,-0.89393 z m 20.57426,-8.41441 c -1.88769,-4.14306 -4.58034,-5.66792 -4.58034,-2.59389 0,1.60529 5.17985,7.70846 6.02996,7.10482 0.25169,-0.17874 -0.40063,-2.20866 -1.44962,-4.51093 z m 16.91897,3.50309 c 0.47682,-0.47682 -0.27963,-1.81852 -1.681,-2.98157 -2.12905,-1.76695 -2.78576,-1.73881 -3.99432,0.17115 -0.79551,1.25718 -1.45737,2.70337 -1.47076,3.21377 -0.0299,1.13704 5.94282,0.79992 7.14608,-0.40335 z m -40.02869,-2.11674 c 0.50402,-1.31348 0.22245,-2.38814 -0.6257,-2.38814 -0.84818,0 -1.63971,-1.61201 -1.75896,-3.58222 l -0.21681,-3.58221 -0.69307,3.60583 c -0.38117,1.9832 -1.41116,3.162 -2.28885,2.61957 -0.87769,-0.54245 -0.65413,0.52158 0.49679,2.36452 2.47455,3.96238 3.83658,4.22014 5.0866,0.96265 z m 26.6842,-3.46281 c -1.87682,-3.2275 -2.33005,-2.19446 -0.7937,1.80916 0.54598,1.42286 1.3281,2.25164 1.73802,1.84172 0.40992,-0.40992 -0.0144,-2.05281 -0.94432,-3.65088 z m -19.29948,-2.10952 c -3.7765,-3.7765 -4.77628,-3.96756 -4.77628,-0.91278 0,1.96123 2.13563,3.19604 6.7664,3.91228 0.65674,0.10152 -0.23882,-1.2482 -1.99012,-2.9995 z m 8.75652,1.59209 c 0.54118,-0.87565 0.22525,-1.59209 -0.70208,-1.59209 -0.92733,0 -1.68606,0.71644 -1.68606,1.59209 0,0.87565 0.31593,1.5921 0.70209,1.5921 0.38614,0 1.14486,-0.71645 1.68605,-1.5921 z m -18.15977,-13.22429 c -1.26048,-1.26047 -1.74141,-1.1878 -1.74141,0.26308 0,1.10247 -0.71644,1.56169 -1.59209,1.02051 -0.87565,-0.54119 -1.5921,-0.14855 -1.5921,0.87241 0,1.02102 1.07467,1.44402 2.38815,0.93998 1.52326,-0.58453 2.45502,0.0745 2.57282,1.81977 0.15937,2.36105 0.28898,2.33101 0.94536,-0.21907 0.41836,-1.6254 -0.0229,-3.7389 -0.98073,-4.69668 z m 3.58427,-1.96927 c -0.51852,-1.35124 -1.28423,-2.11535 -1.70155,-1.69802 -0.41733,0.41734 -0.28654,1.52291 0.29064,2.45682 1.56988,2.54011 2.48745,2.04664 1.41091,-0.7588 z m -4.88854,-9.88192 c -1.39084,-3.67302 -5.21342,-7.53448 -5.21342,-5.26643 0,2.30273 3.64824,8.0526 5.10929,8.0526 0.63753,0 0.68439,-1.25379 0.10405,-2.78617 z M 604.3214,709.32192 c 0.0134,-0.70842 0.71888,-2.36269 1.56772,-3.67617 1.33004,-2.05808 1.5467,-2.01605 1.56772,0.30406 0.0127,1.48071 -0.69207,3.13499 -1.56772,3.67617 -0.87565,0.54119 -1.58113,0.40437 -1.56772,-0.30406 z M 239.70748,689.11668 c 0,-1.31348 0.71644,-2.83092 1.59209,-3.37211 0.87566,-0.54118 1.5921,0.0907 1.5921,1.40418 0,1.31348 -0.71644,2.83092 -1.5921,3.3721 -0.87565,0.54119 -1.59209,-0.0907 -1.59209,-1.40417 z m -2.87381,-3.37211 c 0.0325,-2.62695 0.38926,-3.50887 0.79293,-1.95982 0.40365,1.54906 0.37712,3.69839 -0.0588,4.77629 -0.43612,1.0779 -0.76639,-0.18951 -0.73395,-2.81647 z m -1.50097,-20.69722 c 0.0177,-3.50261 0.34371,-4.74802 0.72453,-2.7676 0.3808,1.98042 0.36635,4.84619 -0.0321,6.36838 -0.39849,1.52218 -0.71007,-0.0982 -0.69241,-3.60078 z m -0.4015,-9.62701 c 0,-1.35443 -2.4196,-10.13085 -5.37689,-19.50315 -2.95728,-9.37232 -6.17479,-20.981 -7.15001,-25.79709 -6.01402,-29.69981 -13.82571,-48.59598 -29.81606,-72.12383 -4.64268,-6.83116 -8.92876,-13.9563 -9.52462,-15.83363 -0.59583,-1.87735 -3.06427,-6.67662 -5.4854,-10.66507 -2.42113,-3.98845 -4.91021,-9.75927 -5.53128,-12.82405 -0.62108,-3.06479 -3.5464,-10.17531 -6.50074,-15.80114 -4.25776,-8.10791 -4.98192,-10.69823 -3.49256,-12.4928 1.48275,-1.78662 1.30025,-2.58786 -0.86549,-3.79988 -1.50945,-0.84471 -2.32574,-2.21333 -1.81399,-3.04134 0.51173,-0.82802 -0.18964,-1.9353 -1.55861,-2.46063 -1.36899,-0.52533 -2.48906,-2.58999 -2.48906,-4.58815 0,-2.48284 -0.88206,-3.56299 -2.78616,-3.41187 -1.98148,0.1573 -2.67878,-0.80133 -2.41436,-3.31911 0.2228,-2.1213 -0.83634,-4.18681 -2.64255,-5.15347 -2.12881,-1.1393 -2.74159,-2.67175 -2.08584,-5.21628 0.82748,-3.21096 0.63861,-3.36527 -1.7357,-1.418 -3.08266,2.52824 -3.40379,1.37564 -0.9133,-3.2779 1.07864,-2.01547 1.12839,-2.88689 0.12955,-2.26958 -0.89889,0.55555 -2.08132,-1.09198 -2.65353,-3.69725 -0.58938,-2.68343 -1.84015,-4.38946 -2.91572,-3.97702 -1.35143,0.51826 -1.88356,-2.80946 -1.88356,-11.77894 0,-11.96881 0.24254,-12.80016 5.69493,-19.52026 3.13222,-3.86047 8.13584,-10.78035 11.11915,-15.37751 2.98331,-4.59718 5.97302,-8.3585 6.64379,-8.3585 2.0858,0 1.33785,4.28827 -1.10099,6.31229 -1.53228,1.2717 -2.0055,3.50119 -1.39308,6.56332 0.51012,2.55059 0.25708,4.63743 -0.56232,4.63743 -2.11181,0 -7.41686,18.56439 -6.20642,21.71871 1.75987,4.58617 3.57221,-0.52875 4.02871,-11.3701 0.11132,-2.64465 0.39355,-2.77953 1.66544,-0.79605 0.84225,1.31348 1.22542,3.46281 0.85148,4.77629 -1.80406,6.33687 -2.24218,15.37123 -0.84929,17.51303 1.38054,2.12278 1.57872,2.12278 1.78362,0 0.47405,-4.91124 0.94756,-12.1274 1.17527,-17.91106 0.3175,-8.06412 2.56945,-7.52753 5.01135,1.19407 3.79245,13.54527 7.0191,6.97149 6.56326,-13.37154 -0.16478,-7.35435 -0.74497,-14.09213 -1.28929,-14.97286 -0.56095,-0.90764 -0.19342,-1.10921 0.84841,-0.46532 1.16208,0.71819 1.83809,-0.0697 1.83809,-2.14215 0,-1.80298 0.78367,-3.27815 1.7415,-3.27815 1.16926,0 1.38949,2.55931 0.67026,7.78877 -0.6845,4.9769 -0.45105,8.17206 0.64664,8.85047 0.94484,0.58396 1.76331,3.70609 1.8188,6.93811 0.0934,5.43692 0.21674,5.5865 1.64959,2.00009 0.85175,-2.13196 1.15644,-4.89838 0.67707,-6.14763 -0.58825,-1.53293 -0.094,-1.97294 1.52012,-1.35353 2.03426,0.78062 2.26361,-0.7395 1.53459,-10.17134 -0.55744,-7.21186 -0.27403,-11.08913 0.81052,-11.08913 0.91722,0 1.68946,1.25377 1.71608,2.78617 0.0457,2.63 0.13824,2.63201 1.65111,0.0358 1.11592,-1.91495 0.91253,-5.39322 -0.66967,-11.45213 -1.2498,-4.78602 -1.8734,-9.10083 -1.38576,-9.58847 0.48763,-0.48755 -0.25255,-0.88653 -1.64486,-0.88653 -2.26193,0 -2.28602,-0.49202 -0.22623,-4.62095 1.26788,-2.54153 3.3623,-5.0266 4.65426,-5.52238 1.29196,-0.49575 2.34902,-2.38671 2.34902,-4.20212 0,-3.51872 5.70721,-10.72781 7.262,-9.17304 0.50998,0.51 -0.11998,4.04006 -1.39982,7.84461 -1.27989,3.80456 -3.17181,11.21602 -4.20428,16.46993 -1.03245,5.25391 -2.23435,10.80633 -2.67088,12.33873 -0.43653,1.53239 -0.0289,2.78617 0.90568,2.78617 0.93467,0 1.69939,-1.29596 1.69939,-2.8799 0,-1.58394 1.05188,-4.27059 2.33752,-5.97035 1.28562,-1.69975 2.37107,-4.88157 2.41211,-7.0707 0.10393,-5.54266 3.99625,-16.19693 5.40327,-14.78991 0.63802,0.63803 0.69708,-0.0465 0.13119,-1.52101 -1.13472,-2.95712 5.13536,-23.49143 7.17306,-23.49143 0.70214,0 1.65131,-1.43288 2.10929,-3.18419 0.45798,-1.7513 1.59847,-3.18418 2.53443,-3.18418 1.84214,0 0.56182,4.31781 -3.75649,12.66849 -2.82159,5.45635 -3.05091,7.01237 -0.83134,5.64059 1.9905,-1.23019 1.9831,-0.90702 -0.13119,5.73277 -1.80009,5.65288 -2.72037,8.1234 -6.46397,17.35259 -1.67296,4.12438 -1.85159,6.91685 -0.68748,10.74664 2.14911,7.07035 4.0985,6.50242 4.0985,-1.19407 0,-6.81326 2.5085,-8.72667 3.6527,-2.78617 0.43317,2.24901 0.77065,1.38808 0.90676,-2.31323 0.27165,-7.38623 3.1833,-13.98934 5.7366,-13.00954 1.16963,0.44883 3.69203,-3.2345 6.3555,-9.28055 11.25226,-25.54253 14.27545,-31.40618 15.32062,-29.71507 0.69995,1.13253 1.52352,0.51071 2.21686,-1.67381 0.60675,-1.91167 3.11451,-5.53336 5.57282,-8.04816 2.45831,-2.51483 4.77481,-5.48785 5.14776,-6.60674 0.42083,-1.26249 1.05637,-1.42236 1.675,-0.42138 0.54829,0.88714 -0.75343,3.64993 -2.89269,6.13956 -5.79115,6.73959 -4.81521,6.53334 4.86694,-1.02852 4.81608,-3.76142 8.75652,-7.49674 8.75652,-8.30072 0,-0.80398 -1.31019,-0.27609 -2.91153,1.1731 -5.16618,4.67534 -10.44659,1.89581 -6.46901,-3.40519 1.12103,-1.49403 -2.39277,1.55313 -7.80845,6.7715 -6.23534,6.00813 -10.39678,8.92771 -11.34656,7.96047 -0.94126,-0.95857 -0.65034,-2.67849 0.78108,-4.61792 1.25452,-1.69975 2.28096,-2.48387 2.28096,-1.74249 0,0.7414 1.75031,-0.68899 3.88958,-3.17861 2.13926,-2.48962 3.46145,-5.2193 2.9382,-6.06594 -0.52357,-0.84716 -0.12482,-1.02854 0.8867,-0.40337 1.16206,0.71819 1.83809,-0.0698 1.83809,-2.14216 0,-3.11634 1.51101,-3.97605 5.97035,-3.39699 1.09456,0.14217 1.99012,-0.48941 1.99012,-1.40345 0,-0.91404 0.75873,-1.66189 1.68605,-1.66189 0.92734,0 1.25195,0.70242 0.72137,1.5609 -0.74922,1.21227 5.05574,-1.26253 10.19666,-4.34707 0.36485,-0.21892 0.20305,-0.85834 -0.35957,-1.42093 -0.56259,-0.56262 -1.93577,-0.30204 -3.05149,0.57902 -2.43435,1.92232 -7.60098,2.04369 -7.60098,0.17853 0,-0.7297 0.96459,-1.32673 2.14353,-1.32673 1.17894,0 4.4476,-1.14942 7.26366,-2.55427 5.84237,-2.91454 8.00924,-1.99072 4.75051,2.02536 -1.46694,1.80785 -1.54369,2.32772 -0.22688,1.5366 1.18316,-0.7108 2.01067,-0.35054 2.04075,0.88846 0.0312,1.2851 0.94705,0.89891 2.38885,-1.00736 1.6674,-2.20449 4.38249,-3.12984 9.46351,-3.22535 3.9189,-0.0737 8.03812,-1.06165 9.15383,-2.19554 1.65451,-1.68147 1.28491,-1.8782 -2.00443,-1.06696 -3.28861,0.81106 -4.07845,0.39107 -4.27931,-2.27548 -0.13549,-1.79857 0.46786,-3.27012 1.34077,-3.27012 0.8729,0 1.09594,0.79473 0.49562,1.76608 -1.60925,2.60379 12.18548,0.0606 15.49079,-2.85584 1.4556,-1.28435 3.96314,-2.58443 5.57233,-2.88904 1.6092,-0.30462 2.92581,-0.66837 2.92581,-0.80835 0,-0.33849 4.61172,-1.00796 14.53781,-2.11042 4.49319,-0.49903 10.22473,-1.34144 12.73675,-1.87201 l 4.56732,-0.96466 -3.98023,2.4821 c -3.83927,2.3942 -3.67011,2.45503 4.77628,1.71761 9.52631,-0.8317 6.52396,0.22096 -10.7102,3.75506 -4.5771,0.93861 -9.77131,3.15585 -11.54268,4.9272 -4.14874,4.14875 -4.06412,5.08197 0.36159,3.98764 2.98465,-0.738 11.41601,-1.60962 21.58724,-2.23163 1.14624,-0.0701 1.68931,-0.7662 1.20683,-1.54686 -1.46075,-2.36354 10.24234,-2.89914 14.54719,-0.66575 4.46371,2.3158 8.96552,2.87957 5.51178,0.69023 -1.67002,-1.05863 -1.50896,-1.582 0.75404,-2.45041 2.75622,-1.05766 6.9419,2.46102 6.9419,5.83568 0,0.75997 0.75123,0.91748 1.66941,0.35001 1.14121,-0.70532 1.07954,-1.74248 -0.19495,-3.27816 -2.36501,-2.84965 0.0115,-2.82983 3.78423,0.0316 2.01448,1.52756 2.2759,2.37494 0.87654,2.84138 -1.34288,0.44763 -1.11674,1.0013 0.69258,1.69559 1.47761,0.56702 2.61032,0.5194 2.51712,-0.10584 -0.52334,-3.51108 0.57064,-5.11698 3.4858,-5.11698 1.80297,0 2.93024,0.56292 2.50502,1.25093 -0.42521,0.688 2.57739,1.37697 6.67243,1.53103 6.85383,0.25786 7.19995,0.0951 4.35511,-2.04696 -2.98235,-2.24568 -2.95172,-2.32709 0.87565,-2.32709 2.18136,0 4.64673,0.61082 5.4786,1.35738 2.04502,1.8353 15.62919,5.40902 20.56036,5.40902 2.18869,0 3.59705,0.61869 3.1297,1.37486 -0.46732,0.75615 0.29448,0.93578 1.6929,0.39914 2.26159,-0.86784 2.22674,-1.19403 -0.31533,-2.95149 -1.57185,-1.0867 -4.48032,-2.48212 -6.46325,-3.10094 -1.98293,-0.61881 -3.22163,-1.74595 -2.75268,-2.50475 0.46897,-0.75879 -0.41619,-2.14993 -1.967,-3.09143 -4.24764,-2.57876 5.06091,-0.28479 13.63132,3.35926 3.7941,1.61323 7.28492,2.93314 7.75738,2.93314 2.17161,0 -4.01508,-5.48437 -8.28678,-7.34606 -2.62732,-1.14503 -3.85753,-2.10991 -2.73387,-2.14419 1.12369,-0.0343 5.65615,1.76858 10.07216,4.00634 4.41601,2.23777 10.51795,4.38731 13.55988,4.77678 3.04192,0.38945 7.46498,1.68023 9.82901,2.86838 4.54113,2.28233 14.64687,4.6307 14.64687,3.40363 0,-0.39814 -2.93519,-2.22131 -6.52267,-4.0515 -6.86021,-3.49982 -7.71784,-5.83104 -1.24552,-3.38557 10.63294,4.01748 14.95288,4.99558 15.45189,3.49853 0.3116,-0.93475 2.4434,-0.58771 5.22461,0.85051 2.58403,1.33626 5.50434,1.93135 6.48958,1.32246 0.98522,-0.60892 1.40895,-0.45909 0.94161,0.33295 -0.46735,0.79203 1.57128,3.01907 4.53029,4.94898 3.0823,2.01032 5.38,2.72687 5.38,1.6778 0,-1.00711 2.67139,0.63787 5.93641,3.65551 7.28291,6.73108 2.05635,0.20063 -6.73246,-8.41204 -5.64947,-5.53628 -5.82921,-5.92455 -1.59209,-3.43957 2.62696,1.54066 6.54571,4.28092 8.70835,6.08949 3.785,3.1653 3.8472,3.1692 1.66316,0.10406 -1.24791,-1.7513 -5.41716,-6.18066 -9.265,-9.84303 -5.73487,-5.45841 -6.32171,-6.49713 -3.25525,-5.76185 2.05747,0.49333 6.78572,3.81808 10.50723,7.38834 7.65892,7.3476 8.28501,7.03033 3.24241,-1.64306 -3.26224,-5.61114 -3.29181,-5.88957 -0.39802,-3.74875 1.71928,1.27191 4.83519,3.77946 6.92426,5.57232 l 3.79828,3.25975 -2.04535,-3.92073 -2.04536,-3.92073 4.41345,2.8918 c 4.78488,3.13517 4.29638,1.28052 -1.38977,-5.2764 -3.20929,-3.70078 -3.11302,-3.6849 2.36727,0.39041 3.14194,2.33644 6.18681,3.77388 6.7664,3.1943 0.57957,-0.57961 1.05377,0.14025 1.05377,1.59968 0,1.45942 0.66148,2.65349 1.46994,2.65349 0.80848,0 3.7045,1.88025 6.43563,4.17834 7.78161,6.5478 6.98835,3.7725 -1.77842,-6.22203 -7.06986,-8.05993 -7.50327,-8.94005 -3.6883,-7.48959 2.37763,0.90396 5.74428,3.45047 7.48143,5.6589 2.76801,3.51897 3.38331,3.70895 4.97757,1.53698 1.51849,-2.06873 1.87595,-1.66502 2.16288,2.44259 0.18904,2.70651 1.43132,7.10106 2.7606,9.76566 1.3293,2.66461 2.03296,5.46597 1.5637,6.22523 -0.46925,0.75925 0.17273,0.98679 1.42661,0.50564 1.78948,-0.68669 1.97745,-2.22054 0.87395,-7.13182 -0.77321,-3.44133 -1.28994,-6.80078 -1.1483,-7.4654 0.1417,-0.66466 -0.27107,-2.41013 -0.91716,-3.87883 -0.64608,-1.46871 -0.88774,-4.33448 -0.53698,-6.36838 l 0.63772,-3.698 1.73774,3.98024 c 7.4067,16.96486 7.39684,16.94919 8.06342,12.79915 0.77987,-4.85538 5.30632,-8.6406 7.05179,-5.89704 0.64887,1.01992 1.19076,3.75754 1.20416,6.08361 0.0199,3.44056 0.61815,4.07393 3.20857,3.39653 2.63389,-0.68879 3.1884,-0.0439 3.20856,3.73126 0.029,5.4365 2.17945,9.338 4.39291,7.97001 1.87429,-1.15838 3.4461,3.91126 3.63335,11.71883 0.10164,4.23403 0.42227,4.83555 1.33543,2.50454 0.92246,-2.35474 1.40031,-2.53976 2.05592,-0.79605 0.46976,1.24945 0.28717,3.70463 -0.40574,5.45593 -3.4757,8.78443 -1.08903,13.5328 6.80195,13.5328 2.73031,0 2.92744,0.38735 1.235,2.42662 -3.19332,3.84771 -0.42729,4.75049 5.66043,1.84747 3.1431,-1.49884 6.29522,-4.5238 7.20359,-6.91296 1.22595,-3.2245 2.0604,-3.80271 3.46333,-2.39977 2.5172,2.5172 -7.14825,12.48548 -13.44772,13.86907 -5.89853,1.29553 -9.18826,8.37755 -5.2345,11.2686 1.78249,1.30338 2.02349,2.22691 0.78145,2.99454 -0.98775,0.61046 -1.37245,2.21346 -0.85488,3.56221 0.75744,1.97386 0.49565,2.08267 -1.34182,0.55771 -1.63393,-1.35604 -2.58971,-1.39808 -3.36237,-0.1479 -0.7311,1.18294 -1.70284,1.2294 -3.01074,0.14393 -1.06218,-0.88154 -3.39915,-1.21891 -5.19326,-0.74974 -1.89102,0.4945 -4.36036,-0.24531 -5.87528,-1.76023 -3.08123,-3.08124 -5.79316,-1.9869 -4.88096,1.9696 0.35312,1.5315 -0.47489,4.21744 -1.83999,5.96874 -2.44533,3.13713 -2.51561,3.13885 -4.75526,0.11629 -1.25029,-1.68738 -2.74098,-2.60023 -3.31263,-2.0286 -0.57166,0.57167 -0.0835,2.19115 1.08478,3.59883 2.77262,3.34081 3.0216,7.5889 0.57854,9.87108 -1.49937,1.40061 -5.28647,-1.7941 -16.38592,-13.8228 -12.25741,-13.28359 -15.50967,-15.91482 -21.55167,-17.43621 -8.20606,-2.06628 -21.62674,-2.39073 -21.62674,-0.5228 0,0.69792 -5.55242,1.18497 -12.33873,1.08233 -6.78629,-0.10266 -15.81366,0.80831 -20.06079,2.02431 -4.24716,1.21603 -8.74116,1.81988 -9.9867,1.34193 -1.24555,-0.47796 -3.62991,0.36852 -5.2986,1.88103 -5.17878,4.69418 -7.86557,6.73029 -8.88103,6.73029 -1.88827,0 -6.2711,5.31972 -6.29634,7.64226 -0.0144,1.29163 -1.45841,3.1454 -3.20971,4.1195 -1.75131,0.97407 -3.71055,2.48748 -4.35388,3.36314 -0.64501,0.87794 -1.18062,0.20871 -1.19407,-1.49194 -0.0218,-2.76744 -0.48517,-2.64258 -4.51302,1.21636 -2.46876,2.36522 -4.89997,3.88906 -5.40273,3.38632 -1.03887,-1.03887 -12.39795,10.19231 -12.39795,12.25838 0,2.06978 6.01929,1.59908 6.72768,-0.52611 0.35113,-1.05335 1.49289,-1.33739 2.60733,-0.64862 1.54456,0.95459 1.43585,2.05988 -0.49198,5.00215 -2.97525,4.54079 -3.2442,10.24777 -0.48454,10.28157 1.23249,0.0144 1.38403,0.46969 0.39803,1.19408 -0.87565,0.64333 -1.69926,2.4694 -1.83022,4.0579 -0.2195,2.66197 -0.0177,2.6887 2.57622,0.34126 2.63522,-2.38483 2.76886,-2.26465 2.09936,1.88805 -1.02135,6.33501 -5.57825,14.75851 -7.38119,13.64422 -0.87056,-0.53803 -1.00695,-0.10074 -0.31688,1.01579 0.66639,1.07823 -0.0336,5.30847 -1.55543,9.40053 -3.10687,8.35373 -5.81687,12.25383 -4.78246,6.88268 0.37657,-1.95542 0.008,-3.09516 -0.83333,-2.57532 -0.82988,0.51288 -1.51984,2.86046 -1.53325,5.21682 -0.0185,3.2573 -0.37869,3.72407 -1.50245,1.94723 -1.23686,-1.95564 -2.01244,-1.72099 -4.75192,1.43768 -1.80061,2.0761 -3.36337,3.3069 -3.47283,2.73509 -0.10941,-0.57182 -0.28856,-1.6964 -0.39802,-2.49908 -0.46925,-3.44117 -2.34463,-3.12809 -4.93391,0.82367 -1.95038,2.97664 -3.13779,3.65792 -3.98533,2.28655 -0.79159,-1.28079 -1.59284,-0.4171 -2.32711,2.50851 -1.35324,5.39176 -7.63193,12.02395 -10.65095,11.25062 -1.20073,-0.30756 -1.57095,-0.23375 -0.82273,0.16402 1.67014,0.88789 -14.89428,16.26794 -17.52069,16.26794 -1.0359,0 -2.12224,0.53732 -2.41415,1.19407 -0.29187,0.65673 -2.68001,2.32012 -5.30697,3.69639 -3.36735,1.76418 -4.6644,3.52535 -4.39703,5.97036 0.2086,1.90742 -0.32874,3.46802 -1.19407,3.46802 -2.35481,0 -1.89734,3.08761 0.86708,5.85202 2.19244,2.19245 2.07114,2.76319 -1.19407,5.61761 l -3.63447,3.17722 -1.50619,-4.15283 c -1.31375,-3.62223 -2.15495,-4.03111 -6.58407,-3.2002 -2.87582,0.5395 -5.52427,0.23034 -6.10725,-0.71293 -0.56613,-0.91604 -2.15337,-1.2342 -3.5272,-0.70703 -1.3738,0.52719 -3.13099,-0.0414 -3.90486,-1.2636 -1.13599,-1.79405 -1.41173,-1.70192 -1.43142,0.47829 -0.0228,2.52715 -0.56067,2.52103 -8.38287,-0.0957 -8.41354,-2.8145 -13.93082,-2.84683 -13.93082,-0.0816 0,2.00202 20.50802,11.31453 22.37536,10.16042 0.8161,-0.50435 1.00339,0.30663 0.42121,1.82378 -0.72255,1.8829 -0.45562,2.36566 0.85876,1.55334 2.2883,-1.41426 8.1575,5.24791 7.08515,8.04238 -0.40474,1.05473 0.0377,3.36307 0.9831,5.12966 1.13656,2.12369 1.17811,3.54626 0.12265,4.19861 -0.87802,0.54265 -1.59639,0.10851 -1.59639,-0.96479 0,-1.07327 -0.41431,-1.53711 -0.92066,-1.03074 -0.50634,0.50635 0.18141,2.9542 1.52835,5.43963 1.39466,2.5735 2.51989,3.49088 2.61367,2.13089 0.0981,-1.42327 0.7464,-0.94084 1.60453,1.19407 0.79193,1.97021 2.3747,3.58221 3.51726,3.58221 2.72896,0 8.25976,10.34526 6.79654,12.71278 -0.62516,1.01157 -2.67537,2.41849 -4.55598,3.12649 -2.63718,0.99286 -3.8616,0.51212 -5.35298,-2.10169 -1.72287,-3.01946 -1.93986,-2.5583 -1.99012,4.22948 -0.0535,7.22709 0.11348,7.5275 3.25216,5.84776 1.81974,-0.97387 4.19153,-1.43189 5.27069,-1.01779 2.27473,0.8729 5.74957,11.48295 5.74957,17.5557 0,3.22978 1.38151,4.86596 6.17203,7.30992 9.34204,4.76594 10.80078,12.5422 1.99792,10.65056 -29.78117,-6.39961 -30.55154,-6.66224 -32.9167,-11.22107 -1.27538,-2.45819 -2.31885,-5.70549 -2.31885,-7.21614 0,-3.27087 -7.28243,-6.9863 -10.31878,-5.26456 -1.17436,0.6659 -4.70638,3.55656 -7.84892,6.42366 -3.53989,3.22964 -5.71371,4.35446 -5.71371,2.95651 0,-1.24102 -1.04039,-2.65565 -2.31198,-3.14361 -2.25733,-0.86623 -2.27063,-3.77912 -0.0428,-9.40407 0.69355,-1.75124 0.36813,-2.78616 -0.87609,-2.78616 -1.08876,0 -0.0908,-1.8888 2.2178,-4.19733 2.30854,-2.30854 4.19734,-4.86728 4.19734,-5.68606 0,-2.15797 4.75747,-6.58707 5.87502,-5.4695 0.5209,0.52089 0.0264,2.05638 -1.09874,3.41218 -1.12522,1.35579 -1.6024,2.90853 -1.0604,3.45053 0.542,0.542 1.43421,-0.18398 1.98267,-1.61329 0.54847,-1.42928 3.96845,-3.38699 7.59992,-4.35045 7.47611,-1.98347 13.92683,-7.1588 12.74895,-10.22831 -0.43351,-1.12968 -3.85911,-2.51447 -7.61248,-3.07732 -7.64066,-1.14577 -13.65872,-5.78804 -13.65872,-10.53612 0,-3.35496 -8.41015,-9.45098 -13.05276,-9.4612 -3.14441,-0.006 -10.82866,6.65441 -10.82866,9.38716 0,1.02498 -1.12052,3.57372 -2.49004,5.66388 -1.88912,2.88316 -3.51345,3.61473 -6.73055,3.03137 -2.33226,-0.42292 -4.56211,-1.09059 -4.95523,-1.48371 -1.843,-1.843 0.065,-18.44119 2.87268,-24.99146 3.41411,-7.96478 7.84564,-11.69853 15.76462,-13.28231 7.12663,-1.42534 6.52843,-4.45427 -0.64963,-3.28943 -8.32319,1.35067 -12.72297,4.82718 -18.01773,14.23684 -2.57909,4.58347 -5.27383,9.05001 -5.98831,9.92566 -2.71184,3.32352 -3.85096,30.53866 -1.69933,40.5984 0.82334,3.84935 0.7078,4.83392 -0.37363,3.18419 -1.22451,-1.86797 -1.57081,-1.42363 -1.58988,2.04007 -0.0144,2.48558 1.0233,4.83027 2.36376,5.34465 2.75926,1.05884 3.2739,3.95677 0.59704,3.36191 -0.98511,-0.21892 -2.11964,0.49802 -2.52118,1.59318 -0.48576,1.32489 0.18628,1.63956 2.00835,0.94037 1.93412,-0.74219 2.50497,-0.3918 1.94357,1.19298 -0.43716,1.23411 0.18874,4.19241 1.39088,6.574 1.20214,2.38161 1.99941,5.18882 1.77169,6.23822 -0.22774,1.04942 1.26204,2.78109 3.31063,3.84815 2.51899,1.31207 3.03437,2.18081 1.5921,2.68371 -1.64298,0.57289 -1.43627,1.52809 0.90032,4.1604 1.68147,1.89432 2.21353,3.4168 1.19407,3.4168 -1.01139,0 -1.83885,1.07467 -1.83885,2.38815 0,1.31347 0.64065,2.38814 1.42366,2.38814 0.78303,0 1.32035,1.79059 1.19407,3.9791 -0.12622,2.18853 -0.85048,3.97963 -1.60935,3.98023 -0.75887,6.3e-4 -1.00506,1.43402 -0.54707,3.18533 0.86528,3.30885 -1.11839,4.39302 -2.8655,1.56612 -1.4566,-2.35684 -4.12385,-0.18942 -3.60839,2.93219 0.25158,1.52355 -0.46332,2.47862 -1.66821,2.22864 -1.15965,-0.2406 -1.6853,0.24722 -1.1681,1.08406 0.5172,0.83685 0.21222,1.97155 -0.67771,2.52155 -0.88994,0.55 -1.61806,2.4131 -1.61806,4.14021 0,1.7271 -1.07055,3.551 -2.379,4.0531 -1.30845,0.50209 -1.97948,1.55933 -1.49118,2.34942 0.4883,0.79007 -0.23227,1.86632 -1.60124,2.39164 -1.36898,0.52533 -2.48905,2.32911 -2.48905,4.00841 0,1.67929 -1.61199,3.72748 -3.58222,4.55151 -1.97021,0.82405 -4.94229,2.57504 -6.6046,3.89108 -2.49816,1.97775 -2.67146,2.81567 -0.99913,4.8307 1.59613,1.92323 1.61309,2.93214 0.0804,4.77897 -1.31816,1.58827 -1.58877,4.91596 -0.84159,10.34861 0.60572,4.40414 0.67588,8.00755 0.15586,8.00755 -0.52,0 -0.94546,-1.10816 -0.94546,-2.46259 z m 20.58532,-52.18036 c 0.0616,-0.71927 -1.00844,-0.18745 -2.37775,1.18185 -1.36929,1.36932 -1.96216,3.34314 -1.31745,4.38631 0.81167,1.31331 1.54296,0.94982 2.37776,-1.18187 0.66303,-1.69317 1.2559,-3.667 1.31744,-4.38629 z m 3.29609,-36.10642 c 0,-0.87565 -0.71644,-1.59209 -1.5921,-1.59209 -0.87565,0 -1.59209,0.71644 -1.59209,1.59209 0,0.87565 0.71644,1.5921 1.59209,1.5921 0.87566,0 1.5921,-0.71645 1.5921,-1.5921 z m -13.46733,-26.95968 c -0.5772,-0.93391 -1.75184,-1.69801 -2.61034,-1.69801 -0.85851,0 -0.6371,1.00239 0.49197,2.22755 2.28571,2.48021 3.75196,2.11367 2.11837,-0.52954 z m 48.4934,-68.56596 c 0,-0.87566 -0.31594,-1.5921 -0.70208,-1.5921 -0.38615,0 -1.14488,0.71644 -1.68606,1.5921 -0.54119,0.87565 -0.22525,1.59209 0.70209,1.59209 0.92732,0 1.68605,-0.71644 1.68605,-1.59209 z m 121.7272,-65.16585 c 0.5038,-0.81516 0.18785,-1.93211 -0.70208,-2.4821 -0.88993,-0.55002 -1.61806,0.11679 -1.61806,1.48207 0,2.79657 0.95535,3.20832 2.32014,1.00003 z m -4.25014,-6.69605 c -0.39747,-1.1924 -1.11914,-0.4707 -1.68213,1.68213 -0.69251,2.64822 -0.48533,3.26981 0.69612,2.08837 0.92517,-0.92517 1.36887,-2.6219 0.98601,-3.7705 z M 224.84095,347.02655 c -0.44166,-1.09457 -0.80304,-0.19901 -0.80304,1.99012 0,2.18913 0.36138,3.08468 0.80304,1.99012 0.44166,-1.09457 0.44166,-2.88568 0,-3.98024 z m -9.01488,1.32429 c 0,-1.24187 0.47997,-3.50872 1.06661,-5.03747 0.67138,-1.74961 0.44686,-2.3965 -0.60595,-1.74583 -2.10964,1.30384 -3.67742,9.04123 -1.83198,9.04123 0.75422,0 1.37132,-1.01608 1.37132,-2.25793 z m 6.36837,-5.00046 c 0,-1.36516 0.76933,-2.00663 1.70962,-1.42548 0.94032,0.58113 0.76964,-0.44859 -0.37926,-2.28826 -1.90804,-3.05527 -2.18421,-3.10416 -3.18982,-0.56463 -1.63294,4.12376 -1.52865,6.76047 0.26737,6.76047 0.87565,0 1.59209,-1.11695 1.59209,-2.48211 z m 74.82843,-6.71614 c 0,-3.11859 -0.54198,-2.49715 -3.85651,4.42196 l -2.66937,5.57233 3.26295,-3.75859 c 1.79461,-2.06724 3.26293,-4.8733 3.26293,-6.2357 z m 125.77543,1.76952 c 0,-1.27146 0.71644,-1.86898 1.59209,-1.32779 0.87566,0.54118 1.5921,-0.13294 1.5921,-1.49814 0,-3.0778 -0.5889,-3.08264 -6.44744,-0.053 -4.97561,2.57297 -5.99344,4.81394 -2.7071,5.96029 3.00414,1.0479 5.97035,-0.48296 5.97035,-3.08129 z M 243.46099,325.45414 c 0.53615,-2.8894 0.34658,-4.86516 -0.4213,-4.39062 -1.13746,0.70301 -0.24846,-5.65769 1.86672,-13.35591 0.92211,-3.35612 -2.9678,-2.05644 -4.70723,1.57277 -1.8687,3.89894 -2.3028,9.32844 -1.61311,20.17628 0.4052,6.37309 3.40696,3.90853 4.87492,-4.00252 z m 10.57534,1.70879 c 0,-1.24032 1.07466,-3.32977 2.38814,-4.64325 1.31348,-1.31348 2.37717,-3.23251 2.36376,-4.26455 -0.0144,-1.12722 -0.69532,-0.92291 -1.7049,0.51175 -1.29061,1.83403 -1.50419,1.27993 -0.9205,-2.38814 0.41799,-2.62695 1.2379,-6.56739 1.82197,-8.75652 0.58409,-2.18912 -0.42359,-0.85712 -2.2393,2.96003 -1.8157,3.81715 -3.30127,8.25263 -3.30127,9.85664 0,1.604 -0.68516,3.33979 -1.52256,3.85735 -0.83742,0.51754 -1.11547,2.00183 -0.61793,3.29842 0.49754,1.29659 -0.0587,3.60208 -1.23616,5.12331 -1.71053,2.21001 -1.42636,2.15633 1.41397,-0.26703 1.95512,-1.66809 3.55478,-4.0477 3.55478,-5.28801 z m 178.21059,5.26201 c 1.54026,-1.85591 1.29221,-2.10969 -1.37925,-1.4111 -1.7915,0.4685 -2.86483,1.48679 -2.38517,2.26289 1.16664,1.88768 1.56583,1.79735 3.76442,-0.85179 z m -172.59613,-5.39011 c -0.4902,-0.49018 -1.77485,-0.001 -2.85484,1.08706 -1.56066,1.57238 -1.3778,1.75525 0.89125,0.89125 1.57016,-0.59787 2.45378,-1.48811 1.96359,-1.97831 z m 8.55712,-2.78662 c 4.13877,-7.0147 4.22981,-8.37089 0.32466,-4.83677 -2.4434,2.21127 -5.66743,10.5001 -4.0841,10.5001 0.22988,0 1.92166,-2.54849 3.75944,-5.66333 z m 53.23916,0.88705 c 1.55178,-2.62696 2.19366,-4.77628 1.42642,-4.77628 -2.02034,0 -8.25169,7.51566 -7.14715,8.62022 1.72963,1.7296 2.88824,0.95109 5.72073,-3.84394 z m -72.30466,-2.24639 c 1.10013,-1.32558 1.25424,-2.62348 0.37595,-3.16628 -0.81862,-0.50593 -1.86099,0.50493 -2.3164,2.24639 -0.98105,3.75155 -0.57097,3.94596 1.94045,0.91989 z m 27.18323,-1.12572 c 0,-0.87565 -0.71644,-1.14931 -1.59209,-0.60813 -0.87565,0.54119 -1.59209,1.70041 -1.59209,2.57606 0,0.87566 0.71644,1.14932 1.59209,0.60813 0.87565,-0.54118 1.59209,-1.7004 1.59209,-2.57606 z m 12.78889,-6.18045 c 1.48857,0 1.47666,0.54606 -0.0521,2.38814 -1.42796,1.72059 -1.46848,2.38814 -0.14504,2.38814 1.01037,0 2.24782,-1.07055 2.74991,-2.37901 0.5021,-1.30845 1.54607,-1.98767 2.31994,-1.5094 0.77387,0.47828 1.00818,-0.16981 0.52068,-1.44019 -0.48749,-1.27038 -0.121,-2.78275 0.8143,-3.36085 0.93533,-0.57807 1.70062,-1.76748 1.70062,-2.64313 0,-0.87565 -0.78793,-1.10513 -1.75093,-0.50997 -1.23062,0.76057 -1.21397,0.0788 0.056,-2.29417 0.99381,-1.85699 1.53313,-3.37632 1.19848,-3.37632 -1.1348,0 -8.26002,6.62962 -8.27171,7.69638 -0.0287,2.61754 -5.47759,8.46385 -7.00734,7.51843 -1.0778,-0.66612 -1.31921,-0.0562 -0.65885,1.66469 0.9386,2.44594 1.31835,2.37502 3.81918,-0.71337 1.5273,-1.88616 3.64536,-3.42937 4.70681,-3.42937 z m 39.95331,0.39802 c 1.98036,-2.52516 1.92405,-2.58147 -0.60111,-0.60111 -2.65204,2.07986 -3.49542,3.38727 -2.18506,3.38727 0.3306,0 1.58438,-1.25378 2.78617,-2.78616 z m -57.51848,-2.25442 c 0,-0.83363 0.66695,-1.10354 1.48209,-0.59975 2.03281,1.25636 3.35272,-1.24146 1.899,-3.59366 -0.81431,-1.31758 -2.28052,-0.43589 -4.68621,2.81797 -2.42913,3.28558 -2.76532,4.45314 -1.09799,3.81332 1.32171,-0.50718 2.40311,-1.60423 2.40311,-2.43788 z m -33.4904,-6.01035 c -0.0362,-1.5908 -0.87331,-1.05285 -2.33172,1.49837 -2.97796,5.20939 -2.94287,8.03174 0.0507,4.07396 1.28563,-1.69975 2.31211,-4.2073 2.28109,-5.57233 z M 437.0884,295.79602 c -21.77639,-5.17792 -28.12184,-6.23131 -26.23081,-4.3545 1.87162,1.85753 29.68656,7.87872 36.61817,7.92687 2.62695,0.0183 -2.04736,-1.58932 -10.38736,-3.57237 z m 151.28769,-18.42358 c 0,-0.87565 -0.71645,-1.5921 -1.5921,-1.5921 -0.87565,0 -1.59209,0.71645 -1.59209,1.5921 0,0.87565 0.71644,1.59209 1.59209,1.59209 0.87565,0 1.5921,-0.71644 1.5921,-1.59209 z m -181.69993,-1.60948 c -3.12758,-1.82708 -20.1853,-6.37352 -23.61668,-6.29463 -3.72657,0.0857 17.6654,7.43151 22.22579,7.63216 3.23657,0.14234 3.49644,-0.10749 1.39089,-1.33753 z m 52.7403,0.74055 c 0,-1.28505 -26.10856,-13.06011 -33.88805,-15.28364 -3.6907,-1.05489 -7.6232,-2.61106 -8.73894,-3.45819 -1.11573,-0.8471 -2.41075,-1.15806 -2.87782,-0.69098 -1.42932,1.42932 7.77403,7.03163 13.28995,8.08993 2.85964,0.54865 9.30762,2.94621 14.32885,5.32792 5.02123,2.3817 10.38292,4.42694 11.91488,4.54496 1.53196,0.11794 3.26336,0.69256 3.84756,1.27676 1.28804,1.28804 2.12357,1.36405 2.12357,0.19324 z m -81.99284,-7.09154 c 0.54869,-0.88781 -0.64227,-1.58132 -2.69219,-1.56772 -2.95754,0.0196 -3.20933,0.32607 -1.28805,1.56772 2.96247,1.91448 2.79701,1.91448 3.98024,0 z m 105.87426,-0.0902 c -10.08304,-6.89631 -40.39706,-18.95108 -42.46241,-16.88574 -0.41814,0.41814 3.09964,1.88234 7.81724,3.25378 4.71763,1.37146 11.75606,3.96724 15.64098,5.7684 6.8392,3.17084 8.21181,3.86602 15.02395,7.6089 4.04836,2.22435 7.15029,2.4228 3.98024,0.25466 z M 371.71862,256.09467 c -0.36485,-0.31922 -2.45448,-1.43339 -4.64361,-2.47596 -3.753,-1.78736 -3.80381,-1.75422 -0.88978,0.58039 2.53621,2.03192 7.71826,3.80713 5.53339,1.89557 z m -53.20248,-8.97208 c 2.5017,-1.07502 1.81924,-1.38706 -3.18419,-1.45582 -4.67141,-0.0642 -5.73202,0.32372 -3.98024,1.45582 2.78554,1.80014 2.97525,1.80014 7.16443,0 z m -75.92298,381.015 c 1.14927,-0.45991 2.52246,-0.40336 3.05151,0.12558 0.52903,0.52904 -0.4113,0.90533 -2.08962,0.8362 -1.85471,-0.0764 -2.23196,-0.45365 -0.96189,-0.96188 z m 93.33216,-12.97013 c -4.43539,-2.44613 -9.01287,-4.13129 -10.17221,-3.74487 -1.16149,0.38717 -1.64998,-0.0382 -1.08801,-0.94753 0.61983,-1.00289 -0.17306,-1.33821 -2.02135,-0.85488 -2.04299,0.53426 -3.2895,-0.16767 -3.79774,-2.13859 -0.67872,-2.63207 -0.77554,-2.64727 -0.94124,-0.14774 -0.18958,2.86016 -3.36887,4.02561 -3.36887,1.23495 0,-0.85318 -2.32843,-2.74706 -5.1743,-4.20866 -2.84587,-1.46161 -7.30872,-4.73157 -9.91746,-7.26656 -2.60872,-2.535 -6.54915,-4.9996 -8.75652,-5.47687 -7.04495,-1.52328 -8.21755,-2.13564 -7.21029,-3.76541 0.54182,-0.87668 -0.95589,-4.13879 -3.32825,-7.24911 -3.25907,-4.27283 -3.86435,-6.10417 -2.47632,-7.49221 1.38804,-1.38804 1.83734,-1.27279 1.83821,0.47146 6.3e-4,1.32008 1.65298,2.40362 3.85904,2.53059 2.12188,0.12215 4.80802,1.02991 5.96923,2.01729 6.28128,5.34087 23.40922,17.21479 27.26168,18.89909 2.44926,1.07082 7.28524,1.94694 10.74664,1.94694 3.4614,0 6.29347,0.75872 6.29347,1.68606 0,0.92732 0.74783,1.22387 1.66183,0.65898 0.91403,-0.5649 2.71713,-0.15124 4.00696,0.91918 3.56686,2.96025 14.09598,2.36317 18.63995,-1.05701 4.19037,-3.154 7.53314,-10.37531 7.53314,-16.27366 0,-3.48691 -0.008,-3.48601 -6.22883,0.63028 -4.09586,2.71052 -7.77586,3.91433 -10.74663,3.51547 -4.10381,-0.55102 -3.53086,-1.08731 6.25263,-5.85277 12.26199,-5.9727 16.15626,-5.70822 14.47684,0.98316 -0.60529,2.41163 -1.10051,5.41254 -1.10051,6.6687 0,1.25616 -1.31348,3.59741 -2.91885,5.20277 -1.60536,1.60539 -2.91884,4.07166 -2.91884,5.48063 0,3.70644 -12.96211,18.15254 -16.2466,18.10661 -1.13436,-0.0159 -5.69142,-2.03018 -10.1268,-4.47629 z m 124.44285,-31.69202 c -1.52289,-1.5229 -1.09735,-3.88312 0.5199,-2.8836 0.80937,0.50022 1.7339,-0.35305 2.0545,-1.89617 0.48648,-2.34158 0.74066,-2.23014 1.53664,0.67373 0.91778,3.34816 -1.97733,6.23976 -4.11104,4.10604 z m -160.95716,-2.60133 c -6.8799,-3.04994 -14.49904,-9.8691 -20.06378,-17.95718 -4.56788,-6.63917 -4.75454,-7.50065 -3.32371,-15.33965 1.31764,-7.21895 1.54355,-7.57647 1.72683,-2.7331 0.30307,8.00863 1.73612,12.38712 4.3872,13.40443 1.27267,0.48837 1.90682,0.22922 1.40925,-0.57591 -0.4976,-0.8051 -0.28509,-1.8468 0.47222,-2.31484 1.55233,-0.95938 5.88182,2.76496 10.60698,9.12438 1.74652,2.35057 6.24659,6.21499 10.00015,8.5876 10.56429,6.67763 6.37728,12.94333 -5.21514,7.80427 z m -27.86165,-35.93597 c 0,-3.84422 0.88538,-4.23204 2.14828,-0.941 0.49326,1.28544 0.2117,2.76061 -0.62571,3.27816 -0.83741,0.51755 -1.52257,-0.53417 -1.52257,-2.33716 z m 5.09368,-9.64652 c 0,-2.18913 0.57362,-5.77134 1.2747,-7.96047 l 1.27469,-3.98024 0,3.98024 c 0,2.18913 -0.57361,5.77134 -1.27469,7.96047 l -1.2747,3.98023 0,-3.98023 z m 237.50399,-53.02544 c -4.01235,-2.00262 -7.88872,-7.47414 -5.29518,-7.47414 0.93475,0 1.28356,-0.67309 0.77512,-1.49574 -0.50842,-0.82265 0.52397,-1.38664 2.2942,-1.25328 1.77021,0.13341 3.21859,1.16465 3.21859,2.29177 0,2.24805 1.58436,2.56332 5.44211,1.08296 2.85396,-1.09516 3.47538,-9.39889 0.82595,-11.03632 -0.93084,-0.57528 -2.95746,0.0988 -4.50363,1.49813 -1.54616,1.39926 -3.41481,2.5441 -4.15257,2.5441 -0.73777,0 -2.47245,1.0112 -3.85488,2.24714 -3.46822,3.10066 -14.25032,3.84302 -15.94685,1.09794 -0.79823,-1.29152 -2.20784,-1.6559 -3.50367,-0.90566 -1.19246,0.6904 -1.62922,0.66122 -0.97057,-0.0648 0.65865,-0.72608 -0.0578,-2.70726 -1.5921,-4.40265 -1.53429,-1.69537 -2.70173,-3.54462 -2.59431,-4.10943 0.1075,-0.5648 -0.1881,-2.02608 -0.65671,-3.24728 -0.46862,-1.22117 0.22282,-3.01228 1.53651,-3.98023 1.31371,-0.96793 2.08041,-2.67473 1.70381,-3.79289 -0.92118,-2.73503 7.13313,-10.4795 13.54004,-13.01919 2.84586,-1.12811 5.1743,-2.5937 5.1743,-3.25688 0,-1.79547 7.30287,-4.24773 20.69723,-6.95002 12.63065,-2.54821 22.27963,-2.72896 22.28568,-0.41749 0.001,0.76396 1.0783,0.49713 2.39177,-0.59296 1.89526,-1.57292 2.87684,-1.5764 4.75602,-0.0168 1.30232,1.08084 3.63075,1.47671 5.17431,0.87974 1.54353,-0.59697 8.54236,-1.44592 15.55294,-1.88654 12.38655,-0.7785 12.85476,-0.67666 16.57911,3.60675 2.2293,2.56388 3.09805,4.65271 2.0767,4.99317 -0.96575,0.3219 -3.29055,5.19691 -5.16624,10.83334 -2.14302,6.43978 -4.28447,10.24806 -5.76263,10.24806 -1.29376,0 -1.99906,0.57155 -1.56734,1.27009 0.43173,0.69855 0.29491,1.95902 -0.30406,2.80104 -1.89774,2.66791 -13.58415,9.4437 -20.19415,11.70856 -3.5026,1.20014 -6.72659,2.61844 -7.16442,3.15178 -3.77706,4.60098 -8.80107,6.89327 -16.39111,7.47871 -6.41248,0.4946 -9.2002,0.0437 -10.66863,-1.72566 -2.0484,-2.46817 -6.63418,-3.19667 -8.48321,-1.34762 -0.57618,0.57617 -0.24963,2.00906 0.72564,3.18419 2.16281,2.60601 -0.81502,2.635 -5.97777,0.0581 z m 9.82931,-23.26553 c -0.49714,-0.80439 1.25168,-1.93599 3.88627,-2.51463 2.6346,-0.57866 4.79018,-1.71163 4.79018,-2.5177 0,-2.04428 -2.41064,-1.83154 -8.61329,0.7601 -7.07569,2.9564 -8.68774,5.73477 -3.32741,5.73477 2.29248,0 3.7614,-0.65814 3.26425,-1.46254 z m -176.00646,22.15977 c 0,-0.87565 1.07466,-1.5921 2.38814,-1.5921 1.31348,0 2.38814,0.71645 2.38814,1.5921 0,0.87565 -1.07466,1.59209 -2.38814,1.59209 -1.31348,0 -2.38814,-0.71644 -2.38814,-1.59209 z m 269.87791,-5.76835 c -1.505,-2.29695 -1.94949,-3.68994 -0.98771,-3.09553 1.8379,1.1359 5.54474,7.27178 4.39305,7.27178 -0.36791,0 -1.90032,-1.87932 -3.40534,-4.17625 z m -9.68843,-15.78249 c -3.67658,-6.27361 -4.16135,-8.52581 -3.40745,-15.83042 0.48342,-4.68392 1.7105,-10.07002 2.72688,-11.96913 1.6991,-3.17481 2.07221,-3.24992 4.63276,-0.93266 4.46262,4.03862 5.3886,3.00644 4.52344,-5.04222 -0.44711,-4.15935 -0.28105,-6.12956 0.36902,-4.37826 5.37575,14.48272 6.92284,20.00568 7.24709,25.87153 0.20571,3.72151 -0.25936,6.7664 -1.0335,6.7664 -0.77415,0 -1.40754,0.89787 -1.40754,1.99529 0,1.09739 -2.10696,3.98393 -4.68214,6.41448 l -4.68216,4.41919 -4.2864,-7.3142 z m -253.69541,1.51699 c 0.0764,-1.85471 0.45365,-2.23196 0.96188,-0.9619 0.45991,1.14929 0.40336,2.52248 -0.12558,3.05152 -0.52905,0.52904 -0.90533,-0.41129 -0.83619,-2.08962 z m 71.51854,-68.23342 c 0,-1.36515 0.71644,-2.4821 1.59209,-2.4821 0.87565,0 1.5921,0.67416 1.5921,1.49813 0,0.82397 -0.71645,1.94092 -1.5921,2.48211 -0.87565,0.54118 -1.59209,-0.13293 -1.59209,-1.49814 z M 145.8269,378.16628 c -0.0292,-1.04288 0.69261,-2.35695 1.60389,-2.92014 0.91126,-0.56321 1.22121,-2.39658 0.68875,-4.07421 -1.57812,-4.97223 0.63979,-9.03779 5.93808,-10.88477 2.73317,-0.9528 5.26949,-1.43225 5.63627,-1.06548 1.38427,1.38428 -2.90605,7.13488 -6.07294,8.14002 -1.9191,0.60909 -2.95299,1.95468 -2.46965,3.21421 0.45725,1.19158 -0.54177,3.81352 -2.22003,5.82651 -1.67827,2.01302 -3.07524,2.80675 -3.10437,1.76386 z m 26.52003,-17.60699 c -1.07972,-1.89453 2.71135,-13.54788 4.47283,-13.74902 2.55558,-0.29184 2.43793,10.24764 -0.12533,11.23127 -1.23446,0.4737 -1.84809,1.50266 -1.36361,2.28655 0.48447,0.7839 0.16442,1.42527 -0.71123,1.42527 -0.87565,0 -1.89834,-0.53734 -2.27262,-1.19407 z m 252.04346,-2.71381 c 0,-1.67251 8.38142,-8.93861 9.2773,-8.04275 0.53851,0.53851 0.23115,1.47748 -0.68302,2.0866 -0.91415,0.60914 -2.12471,2.36128 -2.69009,3.89368 -0.88003,2.3852 -5.90419,4.14027 -5.90419,2.06247 z m 145.67661,-2.4605 c -1.58491,-1.7513 -2.07936,-3.18418 -1.09881,-3.18418 0.98055,0 2.54968,1.43288 3.48695,3.18418 0.93728,1.75131 1.43174,3.18419 1.09882,3.18419 -0.33292,0 -1.90205,-1.43288 -3.48696,-3.18419 z M 168.9285,341.70991 c 3.78593,-2.28629 6.52944,-3.11999 6.87631,-2.08959 0.92967,2.7617 -2.39289,5.0454 -7.98006,5.48491 l -5.19542,0.40871 6.29917,-3.80403 z m 37.45691,-2.64389 c -0.0615,-2.40805 0.60454,-4.37826 1.48019,-4.37826 1.86866,0 1.86866,1.22371 0,5.57233 -1.21248,2.82159 -1.38104,2.68561 -1.48019,-1.19407 z m 245.46861,-2.29155 c 1.53239,-0.40044 2.78616,-1.43428 2.78616,-2.29741 0,-0.86312 0.79293,-1.07926 1.76207,-0.48031 2.14783,1.32743 -1.33458,3.90857 -4.94626,3.66614 -1.69214,-0.11349 -1.57614,-0.37251 0.39803,-0.88842 z m -276.91234,-6.40025 c 1.36013,-2.20074 7.45041,-3.75861 7.45041,-1.90579 0,0.79368 -0.65784,1.44305 -1.46188,1.44305 -0.80404,0 -2.71266,0.47997 -4.24141,1.0666 -1.74785,0.67072 -2.39633,0.44658 -1.74712,-0.60386 z m 39.4042,-7.22914 c -0.0615,-3.2837 0.60454,-5.97035 1.48019,-5.97035 1.90116,0 1.90116,4.33226 0,8.75651 -1.09762,2.55431 -1.39042,2.00318 -1.48019,-2.78616 z m -29.22251,-3.98024 c 0.5716,-1.53239 2.34022,-3.72235 3.93027,-4.86656 1.59006,-1.14422 2.89102,-3.03779 2.89102,-4.20793 0,-1.17012 1.13326,-2.56239 2.51835,-3.09389 3.42217,-1.31321 3.85002,-1.23324 3.85002,0.71966 0,0.92734 -0.71644,1.24327 -1.59209,0.70209 -0.87565,-0.54119 -1.5921,-0.005 -1.5921,1.1912 0,2.49658 -7.76451,12.3416 -9.7335,12.3416 -0.72117,0 -0.84355,-1.25378 -0.27197,-2.78617 z m 34.34885,-10.86743 c 1.62204,-5.26112 2.01072,-5.64979 2.46163,-2.46163 0.2945,2.08227 -0.57227,4.89368 -1.92618,6.24757 -2.22078,2.22078 -2.27318,1.85037 -0.53545,-3.78594 z m 389.02534,-7.83967 c 0.50404,-1.31348 1.19799,-2.38814 1.54214,-2.38814 0.34413,0 0.6257,1.07466 0.6257,2.38814 0,1.31348 -0.69396,2.38814 -1.54212,2.38814 -0.84817,0 -1.12974,-1.07466 -0.62572,-2.38814 z m -386.72063,-0.30517 c -1.54312,-0.40254 -2.39638,-1.39409 -1.89617,-2.20346 0.50024,-0.8094 0.15078,-1.47161 -0.77653,-1.47161 -2.1463,0 -2.21383,-5.85428 -0.0828,-7.17138 0.88184,-0.54499 2.04017,0.14743 2.57407,1.53878 0.80127,2.08808 1.40721,2.17517 3.47102,0.49893 2.16027,-1.75457 2.3226,-1.59771 1.1936,1.15344 -0.71868,1.7513 -1.25558,4.43795 -1.19309,5.97035 0.0625,1.53238 -0.021,2.70306 -0.18545,2.60148 -0.16449,-0.10151 -1.56161,-0.51403 -3.10472,-0.91653 z m 4.39775,-18.00391 c 0.54118,-0.87566 1.29991,-1.5921 1.68607,-1.5921 0.38614,0 0.70207,0.71644 0.70207,1.5921 0,0.87565 -0.75873,1.59209 -1.68605,1.59209 -0.92734,0 -1.24327,-0.71644 -0.70209,-1.59209 z M 588.77411,265.0771 c -2.2306,-4.7753 -2.41188,-10.79823 -0.46856,-15.56637 1.21354,-2.97751 1.36772,-2.91899 2.37543,0.90156 0.5927,2.24715 0.85392,7.42464 0.58044,11.50552 -0.48644,7.25935 -0.54023,7.32765 -2.48731,3.15929 z m -361.00734,1.15061 c 0.54119,-0.87565 1.79106,-1.59209 2.77752,-1.59209 0.98645,0 3.4005,-1.50966 5.36457,-3.3548 1.96404,-1.84514 4.45944,-3.05865 5.54529,-2.6967 1.08586,0.36194 -1.31896,2.58805 -5.344,4.94689 -7.80009,4.57116 -9.92664,5.2585 -8.34338,2.6967 z m 29.24476,-19.23428 c -1.52454,-0.94222 -0.45775,-2.01206 3.76612,-3.7769 6.87321,-2.87182 7.58752,-2.96472 7.58752,-0.98683 0,2.42578 -9.01578,6.2086 -11.35364,4.76373 z m 218.32588,-3.05503 c -2.12279,-1.37185 -2.12279,-1.54334 0,-1.54334 1.31347,0 3.4628,0.6945 4.77628,1.54334 2.12278,1.37185 2.12278,1.54334 0,1.54334 -1.31348,0 -3.46281,-0.69451 -4.77628,-1.54334 z m 102.01972,-0.92873 c 0.0764,-1.8547 0.45364,-2.23195 0.96188,-0.96189 0.45989,1.1493 0.40334,2.52247 -0.12559,3.05152 -0.52903,0.52904 -0.90533,-0.41129 -0.83619,-2.08963 z m -109.17288,-2.23722 c -0.55776,-0.9025 0.0814,-1.16941 1.49814,-0.62572 2.75817,1.05841 3.26281,2.19957 0.97269,2.19957 -0.82396,0 -1.93584,-0.70824 -2.47083,-1.57385 z m -197.43094,-1.61033 c 0.54119,-0.87566 1.29992,-1.5921 1.68607,-1.5921 0.38614,0 0.70208,0.71644 0.70208,1.5921 0,0.87565 -0.75873,1.59209 -1.68606,1.59209 -0.92734,0 -1.24327,-0.71644 -0.70209,-1.59209 z m 6.73986,-1.78966 c 1.07999,-1.08806 2.36464,-1.57724 2.85484,-1.08706 0.49019,0.49019 -0.39342,1.38043 -1.96358,1.9783 -2.26906,0.86401 -2.45192,0.68114 -0.89126,-0.89124 z m 270.46489,-3.38465 c -0.53702,-2.40805 -1.37317,-6.26852 -1.85811,-8.57883 -1.24465,-5.92986 -19.78879,-29.76594 -32.3317,-41.55821 -11.68094,-10.98189 -12.42433,-12.98138 -1.63871,-4.40763 8.58921,6.82775 14.9041,7.56522 13.76521,1.60754 -1.05361,-5.51165 0.31386,-5.02492 7.82771,2.78617 9.18283,9.54608 18.91376,23.98666 16.66806,24.73523 -1.23665,0.41222 -0.86242,2.00295 1.14219,4.85493 1.63982,2.33302 4.26314,6.74938 5.82961,9.81416 2.6455,5.17589 2.65188,5.40955 0.0898,3.2842 -2.42674,-2.01304 -10.54848,-16.25522 -10.49178,-18.39828 0.088,-3.32626 -0.13915,-3.94349 -1.32258,-3.59302 -0.73917,0.21891 -4.65114,-3.18419 -8.69332,-7.56245 -4.5009,-4.87514 -7.37388,-6.98817 -7.41258,-5.45183 -0.0347,1.37975 1.76302,4.22431 3.99511,6.32124 10.79127,10.13788 20.12087,30.32178 17.06921,36.92796 -1.65651,3.58595 -1.66467,3.58353 -2.63808,-0.78118 z m -199.98818,-2.78617 c 0,-0.87565 0.71644,-1.59209 1.59209,-1.59209 0.87565,0 1.5921,0.71644 1.5921,1.59209 0,0.87566 -0.71645,1.5921 -1.5921,1.5921 -0.87565,0 -1.59209,-0.71644 -1.59209,-1.5921 z m 4.77628,0 c 0,-0.87565 0.75873,-1.59209 1.68607,-1.59209 0.92732,0 1.24326,0.71644 0.70207,1.59209 -0.54118,0.87566 -1.29991,1.5921 -1.68605,1.5921 -0.38615,0 -0.70209,-0.71644 -0.70209,-1.5921 z m 7.07069,-0.84667 c 4.0225,-3.04247 6.61426,-3.01026 4.07397,0.0506 -1.09009,1.31348 -3.14803,2.36536 -4.5732,2.3375 -2.1769,-0.0425 -2.09709,-0.42438 0.49923,-2.38814 z m 211.0462,-2.33751 c -1.11137,-2.68312 -1.64886,-5.25021 -1.19441,-5.70465 0.45443,-0.45445 1.62876,1.4758 2.6096,4.28945 2.31637,6.64475 1.20946,7.75167 -1.41519,1.4152 z m -292.94531,2.40841 c 0,-1.24748 14.35197,-7.69226 15.21289,-6.83135 0.49858,0.49859 -1.46657,2.11288 -4.36703,3.58732 -5.29316,2.69078 -10.84586,4.3516 -10.84586,3.24403 z m 290.20322,-12.359 c -0.84695,-1.09457 -2.03507,-3.36956 -2.64028,-5.05554 -1.60397,-4.46827 -9.54829,-16.70964 -10.88823,-16.77762 -0.63011,-0.032 -4.92877,-3.54887 -9.55257,-7.81531 -4.62377,-4.26646 -10.55618,-9.64137 -13.18313,-11.94426 -6.08528,-5.33458 -1.51364,-3.73219 9.77803,3.42728 6.03031,3.82351 10.54198,8.73095 17.13281,18.63583 7.95979,11.96217 13.04728,21.51974 11.45494,21.51974 -0.30893,0 -1.25464,-0.89556 -2.10157,-1.99012 z m -255.17715,-2.69221 c 0,-2.66902 2.82365,-3.32992 3.76344,-0.88086 0.55452,1.44508 -0.005,2.379 -1.42525,2.379 -1.28601,0 -2.33819,-0.67416 -2.33819,-1.49814 z m 14.32884,-0.094 c -2.04089,-1.31893 -1.98303,-1.54688 0.39803,-1.56772 1.5324,-0.0134 2.78616,0.69206 2.78616,1.56772 0,1.94173 -0.17957,1.94173 -3.18419,0 z m -8.44789,-1.01812 c -1.27197,-1.27197 0.16588,-3.75817 2.17349,-3.75817 0.82397,0 1.49812,1.07467 1.49812,2.38814 0,2.46203 -1.87861,3.16302 -3.67161,1.37003 z m 9.24394,-3.75817 c -0.54118,-0.87565 -0.26752,-1.59209 0.60813,-1.59209 0.87565,0 2.03488,0.71644 2.57606,1.59209 0.54118,0.87565 0.26752,1.5921 -0.60813,1.5921 -0.87565,0 -2.03487,-0.71645 -2.57606,-1.5921 z m 6.36838,-1.59209 c -0.54119,-0.87565 -0.26752,-1.59209 0.60813,-1.59209 0.87565,0 2.03487,0.71644 2.57606,1.59209 0.54118,0.87565 0.26752,1.59209 -0.60813,1.59209 -0.87565,0 -2.03488,-0.71644 -2.57606,-1.59209 z m 215.98431,-10.42353 c -2.68607,-5.89524 -2.27612,-6.47152 1.33653,-1.87879 3.45012,4.38611 3.93207,5.93394 1.84766,5.93394 -0.7351,0 -2.16799,-1.82482 -3.18419,-4.05515 z m -105.33377,-8.63163 c 0,-0.84817 1.07466,-1.12974 2.38814,-0.62571 1.31348,0.50402 2.38814,1.19798 2.38814,1.54213 0,0.34413 -1.07466,0.6257 -2.38814,0.6257 -1.31348,0 -2.38814,-0.69396 -2.38814,-1.54212 z m -32.1404,-1.13755 c 1.14928,-0.45991 2.52247,-0.40335 3.05151,0.12571 0.52904,0.52905 -0.41129,0.90534 -2.08961,0.83621 -1.85472,-0.0764 -2.23197,-0.45366 -0.9619,-0.96189 z m 60.40007,-0.76288 c -7.65001,-2.79402 -4.36955,-6.11001 6.04454,-6.11001 3.69565,0 5.90337,0.96653 7.03423,3.07952 2.41935,4.5206 2.08406,4.96789 -2.43578,3.24945 -5.13868,-1.95372 -5.9005,-1.9473 -4.67264,0.0394 1.18523,1.91775 -0.17314,1.85896 -5.97035,-0.25836 z m 29.7005,-6.50803 -3.03293,-3.58222 3.58222,3.03292 c 1.97022,1.66811 3.58221,3.28011 3.58221,3.58221 0,1.27408 -1.28131,0.33349 -4.1315,-3.03291 z m -7.21625,-5.57233 c -1.98036,-2.52515 -1.92404,-2.58146 0.60111,-0.6011 2.65204,2.07986 3.49541,3.38726 2.18506,3.38726 -0.3306,0 -1.58438,-1.25378 -2.78617,-2.78616 z m -13.95326,-2.16698 c -2.09428,-1.69783 -3.32816,-3.56656 -2.74195,-4.15276 0.5862,-0.58619 2.61811,0.48648 4.51535,2.38372 4.47135,4.47137 3.16605,5.77346 -1.7734,1.76904 z m 10.17611,-5.36719 c -5.3694,-3.09386 -8.25883,-5.52531 -6.59821,-5.55241 1.62491,-0.0265 4.93203,1.56379 7.34917,3.53401 2.41713,1.97021 5.74457,4.43564 7.39426,5.4787 6.5565,4.14555 0.84019,1.71711 -8.14522,-3.4603 z m 10.44929,-13.71201 c -2.5478,-2.12068 -5.14384,-2.91188 -7.56245,-2.30484 -4.16556,1.04548 -5.07483,-1.4457 -1.08633,-2.97623 2.24577,-0.86179 13.32439,5.70766 13.32439,7.90116 0,1.12468 -0.5405,0.82179 -4.67561,-2.62009 z"
       id="path4302"
       inkscape:connector-curvature="0" />
  </g>
</svg>
